<?xml version="1.0" encoding="utf-8"?>
<!-- Generator: Adobe Illustrator 24.2.1, SVG Export Plug-In . SVG Version: 6.00 Build 0)  -->
<svg version="1.1" xmlns="http://www.w3.org/2000/svg" xmlns:xlink="http://www.w3.org/1999/xlink" x="0px" y="0px"
	 viewBox="0 0 1920 984" style="enable-background:new 0 0 1920 984;" xml:space="preserve">
<style type="text/css">
	.st0{fill:#403E56;}
	.st1{opacity:0.1;fill:#010101;enable-background:new    ;}
	.st2{fill:#EC2227;}
	.st3{fill:#D0CDE1;}
	.st4{fill:#F3F3F3;}
	.st5{fill:#302E41;}
	.st6{fill:#F9B7B9;}
	.st7{opacity:0.1;fill:#309CCA;enable-background:new    ;}
	.st8{fill:#F3A99E;}
	.st9{fill:#BE6F73;}
	.st10{fill:#E8E8F0;}
	.st11{fill:#309CCA;}
	.st12{fill:#010101;}
	.st13{fill:#E7E8EB;}
	.st14{opacity:0.1;}
	.st15{opacity:0.1;fill:#D2CDE2;enable-background:new    ;}
	.st16{opacity:0.5;}
	.st17{fill:#D2CDE2;}
	.st18{opacity:0.2;fill:#FFFFFF;enable-background:new    ;}
	.st19{fill:url(#SVGID_1_);}
	.st20{opacity:6.000000e-02;fill:#010101;enable-background:new    ;}
	.st21{fill:#C9957F;}
	.st22{fill:#474454;}
	.st23{fill:#EAB294;}
	.st24{opacity:3.000000e-02;fill:#010101;enable-background:new    ;}
	.st25{opacity:6.000000e-02;}
	.st26{fill:#E4A176;}
</style>
<g id="Layer_2">
</g>
<g id="Yoga">
	<path class="st0" d="M3179.6,2545.6c0,24.6-166.8,80.8-372.7,80.8s-372.7-56.2-372.7-80.8s166.8-8.4,372.7-8.4
		S3179.6,2520.9,3179.6,2545.6z"/>
	<path class="st1" d="M3179.6,2545.6c0,24.6-166.8,80.8-372.7,80.8s-372.7-56.2-372.7-80.8s166.8-8.4,372.7-8.4
		S3179.6,2520.9,3179.6,2545.6z"/>
	<circle class="st2" cx="2540.4" cy="2201.9" r="15.7"/>
	<circle class="st2" cx="2609.1" cy="2330.9" r="15.7"/>
	<circle class="st2" cx="2556.1" cy="2298.4" r="15.7"/>
	<path class="st3" d="M2561.1,2520.9c-0.3-0.5-6.8-11.3-9.1-34c-2.1-20.8-0.7-55.8,17.4-104.6c34.4-92.5-7.9-167.1-8.4-167.8
		l2.1-1.2c0.1,0.2,11,19.2,17.5,49.5c8.5,40.2,5.4,81.9-8.9,120.4c-34.3,92.3-8.8,136-8.5,136.4L2561.1,2520.9z"/>
	<path class="st3" d="M2547.6,2210.3c-9.3,0-16.9-7.6-16.9-16.9s7.6-16.9,16.9-16.9s16.9,7.6,16.9,16.9l0,0
		C2564.5,2202.7,2556.9,2210.3,2547.6,2210.3z M2547.6,2179c-8,0-14.5,6.5-14.5,14.5c0,8,6.5,14.5,14.5,14.5c8,0,14.5-6.5,14.5-14.5
		C2562.1,2185.4,2555.6,2179,2547.6,2179z"/>
	<circle class="st3" cx="2597.1" cy="2251.3" r="15.7"/>
	<path class="st3" d="M2563.3,2306.8c-9.3,0-16.9-7.6-16.9-16.9c0-9.3,7.6-16.9,16.9-16.9s16.9,7.6,16.9,16.9
		C2580.2,2299.2,2572.6,2306.8,2563.3,2306.8z M2563.3,2275.4c-8,0-14.5,6.5-14.5,14.5s6.5,14.5,14.5,14.5c8,0,14.5-6.5,14.5-14.5
		C2577.8,2281.9,2571.3,2275.4,2563.3,2275.4L2563.3,2275.4z"/>
	<path class="st3" d="M2604.3,2339.4c-9.3,0-16.9-7.6-16.9-16.9s7.6-16.9,16.9-16.9s16.9,7.6,16.9,16.9c0,0,0,0,0,0
		C2621.2,2331.8,2613.6,2339.3,2604.3,2339.4z M2604.3,2308c-8,0-14.5,6.5-14.5,14.5c0,8,6.5,14.5,14.5,14.5s14.5-6.5,14.5-14.5
		C2618.8,2314.5,2612.3,2308,2604.3,2308z"/>
	<circle class="st3" cx="2551.2" cy="2373.1" r="15.7"/>
	<path class="st3" d="M2570.5,2521.5c0,0-15.7-38.6,31.4-67.5L2570.5,2521.5z"/>
	<path class="st3" d="M2551.2,2520.8c0,0-7.1-41-62.4-40.7L2551.2,2520.8z"/>
	<path class="st2" d="M3117.3,2535.9h-266.9c0,0-5.4-79.3,26.6-80.2s28.4,35.2,68.5-14.4c40.1-49.6,88.8-46.9,95.1-17.6
		s-12.2,52.7,21.6,45.5S3144.8,2480.9,3117.3,2535.9z"/>
	<path class="st4" d="M2979.3,2536l-0.9,0c2.1-52.2,13-85.8,21.8-104.8c9.6-20.6,18.8-28.9,18.9-29l0.6,0.7
		c-0.1,0.1-9.2,8.3-18.7,28.8C2992.3,2450.5,2981.4,2483.9,2979.3,2536z"/>
	<path class="st4" d="M3075.9,2536.1l-0.9-0.3c10.4-35.8,35-58.4,35.2-58.6l0.6,0.7C3110.6,2478.1,3086.3,2500.6,3075.9,2536.1z"/>
	<path class="st4" d="M2892.4,2536l-0.9-0.1c3.5-25.5-2.9-45.3-8.8-57.4c-6.5-13.1-13.9-20.3-13.9-20.3l0.6-0.7
		c0.1,0.1,7.6,7.3,14.1,20.6C2889.6,2490.3,2896,2510.3,2892.4,2536z"/>
	<path class="st3" d="M3153.5,2537.2h-331.9l-0.1-1.1c-0.2-2.8-4.4-68.8,16.9-92.3c4.8-5.3,10.5-8,17.1-8.2
		c13.9-0.4,22.7,4.8,29.8,9c13.3,7.9,22.1,13.1,54.1-26.4c34.6-42.8,72-52,93.5-46.9c13.9,3.3,23.4,12.7,26.2,25.7
		c2.7,12.3,1.8,23.9,1.1,33.2c-0.7,9.9-1.3,17.8,2.8,21.4c3.4,3,10.2,3.2,21.4,0.8c22.8-4.9,54.6-0.7,70.5,19.9
		c8.6,11.1,15.3,31.2-1.2,64.3L3153.5,2537.2z M2823.9,2534.7H3152c12.3-25,12.7-46.1,1.1-61.1c-14.6-18.9-45.3-23.9-68.1-19
		c-12.2,2.6-19.4,2.2-23.5-1.4c-5-4.4-4.4-12.7-3.6-23.4c0.7-9.1,1.5-20.5-1.1-32.5c-2.6-12.1-11.5-20.7-24.4-23.8
		c-20.8-5-57.1,4.1-91.1,46.1c-33.3,41.1-43.3,35.2-57.2,27c-7.1-4.2-15.3-9-28.5-8.7c-5.9,0.2-11.1,2.7-15.4,7.4
		C2821.1,2466.5,2823.4,2525.8,2823.9,2534.7L2823.9,2534.7z"/>
	<ellipse class="st0" cx="2806.9" cy="2545.6" rx="372.7" ry="44.6"/>
	<path class="st5" d="M2815.1,1961.8c0,0-18.6-6.7-30.6,20c-12,26.6-30.6,55.9-30.6,55.9l10.6,2.7c0,0,2.7-18.6,9.3-21.3l-2.7,24
		c0,0,79.8,27.9,115.8-2.7l-1.3-9.3c0,0,5.3,1.3,5.3,9.3l4-4c0,0-4-8-16-18.6c-7.9-7-10.6-20.3-11.5-28.6c-0.7-6.9-3.5-13.5-8-18.8
		C2851.6,1961.1,2837.1,1951.3,2815.1,1961.8z"/>
	<path class="st6" d="M2795.5,2066.2l-19.3-24.1l-14.5-49.4l55.5-59.1c0,0,12.1-45.8,1.2-43.4s-13.3,36.2-13.3,36.2l-70,54.3
		c0,0,7.2,76,27.7,102.5l15.7,49.4L2795.5,2066.2z"/>
	<path class="st6" d="M2848.5,2066.2l19.3-24.1l14.5-49.4l-55.5-59.1c0,0-12.1-45.8-1.2-43.4s13.3,36.2,13.3,36.2l70,54.3
		c0,0-7.2,76-27.7,102.5l-15.7,49.4L2848.5,2066.2z"/>
	<circle class="st6" cx="2822" cy="2014.3" r="31.4"/>
	<path class="st6" d="M2807.5,2031.2c0,0,1.2,25.3-6,33.8c-7.2,8.4-14.5,51.9,20.5,53.1s31.4-36.2,31.4-36.2l-7.2-20.5
		c0,0-10.9-15.7-7.2-30.2H2807.5z"/>
	<path class="st6" d="M2775,2312.2l25.9,7.8c0,0,21.1-12.7,21.1-0.6c0,12.1-7.2,27.7-4.8,38.6s7.2,37.4,0,37.4s-21.7-47-21.7-47
		l-24.1-13.3L2775,2312.2z"/>
	<path class="st6" d="M2807.5,2481.1l-9.6,37.4c0,0-8.4,10.9,0,15.7c4,2.3,6.9,6.9,8.8,11.2c3.5,7.9,11.6,12.8,20.3,12.3
		c4.1-0.3,7.6-2,8.4-6.2c0.5-2.7-0.2-5.4-1.9-7.6c-8.9-12-10.9-19.9-10.9-19.9l3.6-42.2L2807.5,2481.1z"/>
	<path class="st5" d="M2784.2,2019.9c0,0,10.6-14.6,20-17.3c9.3-2.7,10.6-16,10.6-16s24,26.6,38.6,27.9c14.6,1.3,1.3-31.9,1.3-31.9
		l-26.6-6.7l-25.3,2.7l-20,13.3L2784.2,2019.9z"/>
	<path class="st5" d="M2764.1,2220.6l-4.8,9.6c0,0-117,37.4-107.3,72.4s63.9,25.3,63.9,25.3l60.3,10.9l6-26.5l-42.2-10.9l72.4-26.5
		l2.4,123l-9.6,88l24.1,2.4c0,0,26.5-80.8,22.9-114.6c0,0,44.6-137.5,19.3-158C2846.1,2195.2,2764.1,2220.6,2764.1,2220.6z"/>
	<path class="st3" d="M2823.4,2081.9l-18.8-22.7l-12.7,5.8l-13.3,42.2c0,0-10.9,20.5,2.4,42.2c0,0,2.4,14.5-1.2,18.1
		c-3.6,3.6-4.8,26.5-4.8,26.5l-15.7,30.2c0,0,89.2,15.7,115.8-6c0,0-13.9-51.3-5.5-67c8.4-15.7,9.6-39.7,0-50.6
		c-9.6-10.9-19.8-39.2-19.8-39.2l-5.8-3.7L2823.4,2081.9z"/>
	<polygon class="st3" points="2893.8,1901.8 2882.2,1901.8 2882.2,1890.3 2881.1,1890.3 2881.1,1901.8 2869.6,1901.8 2869.6,1902.9 
		2881.1,1902.9 2881.1,1914.4 2882.2,1914.4 2882.2,1902.9 2893.8,1902.9 	"/>
	<polygon class="st3" points="2783.8,1877.6 2772.3,1877.6 2772.3,1866.1 2771.2,1866.1 2771.2,1877.6 2759.6,1877.6 2759.6,1878.7 
		2771.2,1878.7 2771.2,1890.3 2772.3,1890.3 2772.3,1878.7 2783.8,1878.7 	"/>
	<polygon class="st3" points="2836.6,1826 2825,1826 2825,1814.4 2824,1814.4 2824,1826 2812.4,1826 2812.4,1827 2824,1827 
		2824,1838.6 2825,1838.6 2825,1827 2836.6,1827 	"/>
</g>
<g id="Barber">
	<path class="st7" d="M1065.5,717.5c0.2-75.7-36.4-146.8-98.2-190.5c0.8-8.1,1.3-16.2,1.3-24.3c0-128.1-102.4-232-228.8-232
		c-38.9,0-77.2,10-111,29.1c-89.4-58.8-206.2-94.4-333.9-94.4C87,205.3-91.7,299.6-171,434.8c-4.4-0.3-8.8-0.4-13.3-0.4
		c-126.3,0-228.8,103.9-228.8,232c-0.1,45.3,13,89.6,37.6,127.6l0,0c0,115.3,108.8,208.7,243,208.7h973.4
		c105.4,0,190.8-73.4,190.8-163.9l0,0C1053.9,802.2,1065.6,760.3,1065.5,717.5z"/>
	<path class="st8" d="M657.8,290.9c-9.7,4.1-19.5,8.2-28.6,13.7c-4.1,2.5-8.1,5.2-12.3,7.4c-4.6,2.4-9.4,4.3-14.2,6.2
		c-13.3,5.4-26.2,11.7-38.6,18.9c1.1-13.9-1-29-9.3-39.8c-1.2-1.6-2.6-3.1-4.1-4.5c-5.9-5.5-14.2-6.9-20-11.6
		c3.5-6.2,11.3-11.8,16.6-16.5c5.7-5.1,11.7-9.9,17.9-14.4c12.3-9.1,25.5-17.1,39.2-23.8c8.7-4.3,17.9-8.1,27.5-9.4
		c1.2-0.3,2.5-0.2,3.6,0.3c1.5,0.8,2,2.7,2.4,4.4c1.8,8.3,2.7,16.9,4.2,25.3c0.7,4.3,1.7,8.6,3,12.8c1.6,5,3.5,9.8,5.6,14.6
		C653.2,279.8,655.5,285.3,657.8,290.9z"/>
	<path class="st9" d="M381.2,526.5c0,45-36.5,81.4-81.4,81.4c-25.9,0-50.3-12.3-65.6-33.2c-10.3-14-15.8-30.9-15.8-48.2
		c0-45,36.5-81.4,81.4-81.4S381.2,481.5,381.2,526.5z"/>
	<path class="st9" d="M270.6,598.2c4.4,7.5,8.8,15.1,11.5,23.3c2.8,8.2,3.9,17.2,1.6,25.6c27.7-14.6,60.7-13.4,91.3-20.8
		c0.8-0.1,1.6-0.5,2.1-1.1c0.4-0.9,0.4-1.8,0-2.7c-6.4-23.6-8.8-48.2-7.3-72.6l-15.9,9.4c-7,4.3-14.2,8.2-21.6,11.6
		c-10.5,4.6-21.7,7.4-32.7,10.6c-8.7,2.6-26,5.9-31.5,13.5C269,596,269.9,597.1,270.6,598.2z"/>
	<path class="st0" d="M225.8,488.7c-5.3,2.1-11.5,4.6-16.4,1.6c-3.6-2.2-5.1-6.8-4.8-11s1.8-8.2,3.1-12.2c2.6-8.2,4-16.8,6.9-25
		c2.9-8.2,7.6-16.1,15.1-20.4c13.8-8,31.5-1.4,46.8-5.8c6.5-1.8,12.1-5.6,18.1-8.5s12.8-5.2,19.3-3.6c7.6,1.8,13.2,8.2,20.3,11.4
		c7.8,3.6,17,3.3,24.1,8.1c5,3.4,8.2,8.9,11,14.2c9,17.2,16.1,35.4,21.1,54.2c2,6.7,3.2,13.7,3.5,20.7c0.1,9-2.4,17.8-4.8,26.4
		l-3.9,13.7c-1.4,5.2-2.9,10.3-5.6,15s-6.9,8.6-12.1,10c-6.5,1.7-14-1.6-16.8-7.6c-1.7-3.7-1.7-8-1.7-12.2c-0.1-8.1-1-16.1-2.6-24
		c-0.8-4-1.9-8.1-4.6-11.1c-3.5-3.9-9-5.2-14.2-5.3c-6-0.1-12.7,1.6-16.2,6.5c-2.8,4-3.3,9.5-7.1,12.6c-1.7,1.3-3.7,2.1-5.8,2.3
		c-8.8,1.1-17.2-3.9-20.3-12.2c-1.2-3.4-1.8-7.7-5-9.3c-1.7-0.8-3.7-0.7-5.5-1.2c-5.5-1.7-7-8.6-7.5-14.4c-0.6-6.7,1.7-20-6.7-20.4
		C244.4,480.8,234,486,225.8,488.7z"/>
	<path class="st0" d="M245.3,577c-2.9,1.4-6,3-7.1,6c-0.4,1.2-0.5,2.4-0.9,3.6c-1.8,5.3-8.9,6.3-12.6,10.5c-1.7,2.1-2.8,4.6-3.2,7.3
		c-2.5,10.4-1.7,21.4,2.3,31.3c1.1,3.2,2.9,6.1,5.2,8.5c6.6,6.7,17.9,6.6,26.1,2s13.8-12.6,18.6-20.7c2.5-4.1,4.7-8.4,6.3-12.9
		c1.5-4.6,2.5-9.3,3.1-14.1c2.9-18.6,6.6-39.3,5.3-58.2c-3.9-0.2-11.3-0.5-14.7,1.9c-4.3,3.1-3.1,9.2-4.7,13.7
		C265.3,566.6,254.7,572.3,245.3,577z"/>
	<path class="st0" d="M248.6,579.4c-4.8,0.3-13.5-5.1-18.4-4.8c-3.3-5.8-6.2-11.8-8.8-17.9c2.6-3.7,6.7-4.6,13,0
		C239.6,560.3,246.6,572.6,248.6,579.4z"/>
	<path class="st10" d="M321.7,375.2c-5.3,2.8-8.5,2.9-11.1,2.4c-2.6-0.6-7.8,2-7.8,2c-45.6,15.6-47.4,22.9-47.4,22.9l52.7-18.6
		c10.1-4.4,10.3-2.9,10.3-2.9c7.8,7.3,17.6,2.4,17.6,2.4s13.7-6.5,9.6-12.7S327,372.5,321.7,375.2z M343.7,374.1
		c0,0-3.9,10.3-17.8,8.7c0,0-6.9-1-4-6.1c0,0,14.2-6,18-5.5C343.6,371.5,343.6,374.1,343.7,374.1L343.7,374.1z"/>
	<path class="st1" d="M321.7,375.2c-5.3,2.8-8.5,2.9-11.1,2.4c-2.6-0.6-7.8,2-7.8,2c-45.6,15.6-47.4,22.9-47.4,22.9l52.7-18.6
		c10.1-4.4,10.3-2.9,10.3-2.9c7.8,7.3,17.6,2.4,17.6,2.4s13.7-6.5,9.6-12.7S327,372.5,321.7,375.2z M343.7,374.1
		c0,0-3.9,10.3-17.8,8.7c0,0-6.9-1-4-6.1c0,0,14.2-6,18-5.5C343.6,371.5,343.6,374.1,343.7,374.1L343.7,374.1z"/>
	<path class="st10" d="M324.6,346.4c-7.9,0.3-9.5,6.2-9.5,6.2c-3.2,3.9-3.5,9.4-0.7,13.6l-14,13.9c-2.7,1-4.9,2.8-6.5,5.2
		c0,0-30.7,27.1-30.3,29.6c0,0,5,2.6,36.8-26.4l8.3-7.4c0,0,1.8-13.8,14.9-16.4c0,0,1.3,0.6,2-2.5c0.7-1.5,1.7-2.8,2.9-4
		C330.2,356.6,332.5,346.1,324.6,346.4z M326.8,355.8c0,0-4.2,10.9-10.2,7.8c-6-3.2-0.2-10.4-0.2-10.4
		C326.8,342.9,326.8,355.8,326.8,355.8L326.8,355.8z"/>
	<circle class="st1" cx="300.6" cy="383.9" r="1.7"/>
	<path class="st8" d="M446.5,331.1c-4.9-2.6-9.9-4.8-15.1-6.6c-6.9-2-14-3.2-21.2-3.6c-22.6-2.2-45.3-3.4-68.1-3.7
		c-4,0-8.1-0.1-11.9,1.3c-3.4,1.3-6.5,3.3-9,5.9c-4.4,4.2-7.9,9.3-10.3,15c-0.8,1.4-1,3.1-0.6,4.6c0.5,1.5,2.6,2.5,3.8,1.4
		c-6.2,5-8.7,13.2-6.3,20.7c-3.6,1.9-6,5.6-6.3,9.7c9.4,1.7,19.1,1.3,28.3-1.4c-2.7-0.7-5.6,1.9-5.7,4.7c0,2.9,1.7,5.5,4.3,6.8
		c2.6,1.2,5.4,1.8,8.2,1.6c10.9,0,21.6-3.7,32.5-4.2c8.3-0.4,17,1.1,24.9-1.3c9.3-2.9,17.5-11,27.1-9.3c7.6,1.4,12.6,8.4,17.5,14.3
		c7.9,9.4,17.7,17.1,27.5,24.7c7.5,5.8,15.3,11.8,24.6,13.8c2.8,0.8,5.7,0.6,8.4-0.4c2.3-1.2,4.1-3,5.5-5.2
		c10-14.2,10-32.1,9.4-48.8c-0.3-8.5-2.2-9.7-10-13.2c-9.2-4.1-18.3-8.3-27.3-12.6C466.4,340.8,456.4,336,446.5,331.1z"/>
	<path class="st10" d="M551.2,363c-1.5,0.9-3.2,1.7-4.9,2.3c-2.8,0.7-5.7-0.5-8.5-1.5c-11.6-3.9-24.6-3-35.8-7.8
		c3.7,21.2-1.1,42.9-13.4,60.6c-2.3,3.3-5.4,6.7-9.4,7c1.8,5.5,7.3,8.9,12.6,11.3c8.4,4,17.1,7.1,26.2,9.2c2.6,0.6,5.7,0.9,7.2-1.3
		c0.9-1.3,1.3-3.5,2.9-3.4c2.4,2.6,1.6,7.9,5,9c1,0.3,2.1,0.3,3.2,0l7.5-1.3c2.2-0.2,4.4-0.9,6.3-2.2c1.2-1,2.2-2.3,2.9-3.7
		c8.4-14.3,11.6-30.9,12.9-47.2c0.6-8.1,1.4-16.7,0.9-24.9C566.2,362.3,557.3,360.2,551.2,363z"/>
	<path class="st1" d="M551.2,363c-1.5,0.9-3.2,1.7-4.9,2.3c-2.8,0.7-5.7-0.5-8.5-1.5c-11.6-3.9-24.6-3-35.8-7.8
		c3.7,21.2-1.1,42.9-13.4,60.6c-2.3,3.3-5.4,6.7-9.4,7c1.8,5.5,7.3,8.9,12.6,11.3c8.4,4,17.1,7.1,26.2,9.2c2.6,0.6,5.7,0.9,7.2-1.3
		c0.9-1.3,1.3-3.5,2.9-3.4c2.4,2.6,1.6,7.9,5,9c1,0.3,2.1,0.3,3.2,0l7.5-1.3c2.2-0.2,4.4-0.9,6.3-2.2c1.2-1,2.2-2.3,2.9-3.7
		c8.4-14.3,11.6-30.9,12.9-47.2c0.6-8.1,1.4-16.7,0.9-24.9C566.2,362.3,557.3,360.2,551.2,363z"/>
	<path class="st9" d="M117.9,782.3c-3.7-4.7-7.5-9.7-12.9-12.2c-3.1-1.3-6.5-2.1-9.8-2.4c-18.2-2.6-36.4-5.3-54.8-5.8
		c-6-0.2-12.4,0-17.3,3.5c-5.6,4-7.8,11.3-8.1,18.2c-0.7,16.6,6.7,32.5,19.8,42.7c11,8.4,24.9,11.9,38.4,14.6
		c7.1,1.5,14.3,2.8,21.5,3.9c7.2,1.1,14.5,2,21.4,4.2c14.8,4.8,27.9,15.5,43.5,16.4c0.7,0.1,1.5,0,2.1-0.4c0.7-0.6,1.1-1.3,1.3-2.2
		c3.4-12.1,15.3-41,0-49.5c-8-4.4-16.9-4.6-24.7-10.2C130.5,797.5,123.9,789.9,117.9,782.3z"/>
	<path class="st9" d="M-12.7,862.5c-10.1-8.8-24-13.4-31.3-24.6c-3.2-4.9-4.8-10.7-6.5-16.3l-4.8-17.1c-0.4-1-0.5-2.2-0.5-3.3
		c0.4-3.6,4.6-5.3,8.1-5.8c18.1-2.8,36.9,4.5,50.5,16.8s22.2,29.3,27.3,47c0.4,0.9,0.4,1.9,0.2,2.8c-0.4,0.8-1.1,1.5-2,1.9
		c-6.5,3.9-15.3,9.5-23,10.7C-2.2,875.8-7.3,867.2-12.7,862.5z"/>
	<path class="st0" d="M429,788.8l53,21.2c10.4,4.2,16.2,15.3,13.6,26.2l-39.4,165.9h-98.6l17.2-188.7
		C374.8,813.4,412.2,782.4,429,788.8z"/>
	<path class="st11" d="M480.2,768.9c-1,2.1-2.4,4.3-2.2,6.6c0.1,1.4,0.9,2.7,0.7,4.1c-0.2,2.7-3.3,4.2-6.1,4.3s-5.4-0.9-8.1-0.4
		c-4.4,0.7-7.4,4.8-11.2,7.1c-5.3,3.3-11.9,3.1-18.1,3.6c-12.9,1.2-25.2,6-36.8,11.5c-7.9,3.7-16.4,8.6-19.4,16.8
		c-4.3,11.6,4,23.9,5.9,36.2c0.5,4.1,0.6,8.3,0.4,12.5c-1.4,43.5-3.7,87.4-6.2,130.8l-473.8,0.6l23.3-40.9
		c22.7-39.9,46.1-80.5,80.4-111c5.1-4.6,10.8-8.4,17-11.4l27.5,24.6c2.2,2.2,4.8,4,7.6,5.3c5.2,2.1,11,0.9,16.5,1.1
		c10.7,0.3,20.4,5.8,29.7,11.1c6.8,3.7,13.3,7.8,19.5,12.4c3.6,2.8,8.9,4.5,12.7,7.1l-0.9-46.4c-0.1-4.2-0.2-8.5,1.1-12.5
		c2.4-7.8,9.4-13.2,12.7-20.6c1.5-3.3,2.2-6.9,3.5-10.3c1.8-4.4,4-8.5,6.6-12.5l17.2-27.6c4.2-6.8,8.5-13.6,13.1-20.1
		c20.1-28.7,47.2-51.7,73.6-74.8c-0.6-6.6,0.9-13.2,4.3-18.8c1.4-1.9,2.5-3.9,3.3-6.1c0.6-2.5,0.7-5.2,0.5-7.8c0-0.7,0-1.3,0-2
		c0.3-4.2,2.1-8.2,5-11.3c3-3.1,7.1-5.1,11.1-6.8c20.6-9.2,42-16.5,64-21.7c3.5-0.8,7.2-1.6,10.7-0.6c1,3.4,4.6,4.6,8.2,5.4l2.3,0.5
		c6.1,1.3,11.7,4.1,16.5,8c5,4.4,8.4,10.2,11.8,16c25.2,43.2,36.8,99.9,75.7,131.3C481.6,763.9,481.2,766.9,480.2,768.9z"/>
	<path class="st1" d="M639,238.2c-13.6,29.9-40.5,59.5-75.5,59.5c-2.9,0-5.7-0.1-8.6-0.4c-1.2-1.6-2.6-3.1-4.1-4.5
		c-5.9-5.5-14.2-6.9-20-11.6c3.5-6.2,11.3-11.8,16.6-16.5c5.7-5.1,11.7-9.9,17.9-14.4c12.3-9.1,25.5-17.1,39.2-23.8
		c8.7-4.3,17.9-8.1,27.5-9.4c1.2-0.3,2.5-0.2,3.6,0.3c1.5,0.8,2,2.7,2.4,4.4C639.9,229.9,637.5,229.8,639,238.2z"/>
	<circle class="st8" cx="563.5" cy="208.5" r="86.6"/>
	<path class="st10" d="M743.8,496.5c-1.4,10.5-3.9,20.8-7.3,30.7c-1.3,3.6-2.9,7.2-4.5,10.7c-9.6,20.4-14.9,42.5-17.4,64.9
		c-0.2,1.8-0.5,3.5-1,5.2c-1.9,7.2-5.9,13.7-9,20.5c-3.1,7.4-5.7,14.9-7.8,22.7c-0.7,1.9-1,4-0.7,6.1c0.5,2.2,2.1,3.9,3.2,5.9
		c5.7,9.9-0.9,22-3.1,33.2c-0.8,3.9-1.1,8.1-3.6,11.1c-2.1,2.6-5.5,3.8-8.6,4.9c-45.1,15.3-91.3,27.4-138.2,36
		c-7,1.3-14.2,2.5-21.2,1.2s-13.9-5.6-16.2-12.3c-1.4-3.9-1.1-8.1-1-12.2c0.3-8.6,0-17.3-0.5-26c-1.5-28.6-4.9-57.4,2.6-84.8
		c2.2-8.1,5.4-15.9,7.9-23.9c5-15.6,6.2-31.7,7.5-47.9c1-13.3,2-26.7,5-39.9c2.2-9.8,0.7-20,0.6-30.1c-0.3-23,6.5-45.6,19.4-64.6
		c2.2-3.3,4.7-6.6,5.9-10.3c1.7-5.4,0.5-11.3-0.2-16.9c-1.9-14.4-1.1-29,2.2-43.1c1.1-5.3,3.1-10.3,6-14.9
		c3.2-4.7,7.8-8.2,12.4-11.6c26.8-19.3,56.3-34.5,87.7-44.9c2.9,7.3,5.6,15.8,7.9,23.3c0.3,1,0.5,2.3-0.3,2.9
		c-0.8,0.6-1.7,0.3-2.6,0.3c-1.9,0.2-3.5,1.6-4,3.4c-0.5,1.8-0.3,3.8,0.5,5.5c1.8,4.5,5.5,7.9,9.2,11.1l18.3,16
		c2.2,2.1,4.6,3.9,7.1,5.5c2.3,1.3,4.8,2.2,7.2,3.4c9.5,4.8,16,14.1,19.7,24.1c3.7,10,2,22,6.8,31.4
		C749.3,424.5,749.2,461.7,743.8,496.5z"/>
	<path class="st0" d="M731.7,825.1c5.6,22.4,5.4,45.9-0.4,68.3c-1,4-2.3,8.1-1.4,12.2c0.5,2.3,1.6,4.5,1.9,6.8
		c0.1,2.1-0.1,4.3-0.7,6.3c-5.7,27.1-3.7,55.3-1.4,83c-1,0-1.3,0.5-2.3,0.5h-24.9c-0.4-7.3-9.5-12.7-13.9-18.5
		c-8.7-11.5-11.7-26.3-8.2-40.3c3.9-15.5,15.3-27.9,21.2-42.7c6.5-16.3,5.9-34.8,12.8-50.9C718.2,840.4,725.6,833.1,731.7,825.1z"/>
	<path class="st1" d="M731.7,825.1c5.6,22.4,5.4,45.9-0.4,68.3c-1,4-2.3,8.1-1.4,12.2c0.5,2.3,1.6,4.5,1.9,6.8
		c0.1,2.1-0.1,4.3-0.7,6.3c-5.7,27.1-3.7,55.3-1.4,83c-1,0-1.3,0.5-2.3,0.5h-24.9c-0.4-7.3-9.5-12.7-13.9-18.5
		c-8.7-11.5-11.7-26.3-8.2-40.3c3.9-15.5,15.3-27.9,21.2-42.7c6.5-16.3,5.9-34.8,12.8-50.9C718.2,840.4,725.6,833.1,731.7,825.1z"/>
	<path class="st0" d="M679.5,700.7c-21.2-3.4-41.7,7.3-62.1,13.8c-31.2,9.9-65.6,10.5-94.5,26c-2.6,1.2-4.9,2.9-6.9,5
		c-2.3,2.9-3.8,6.4-4.3,10.1c-1.3,8.2,0.3,16.6,4.5,23.7c1.8,3.1,4.1,5.9,5.5,9.1c3.3,7.8,1.1,16.7,0.5,25.2
		c-1.3,18.9,6,37.4,7.5,56.3c0.9,11.2-0.3,22.6,2.4,33.4c1.6,6.8,4.7,13.3,6,20.2c1.3,6.9,0.7,13.6,1.2,20.5
		c1.2,19.6,10.1,38.6,7.9,58l168,0.6c-6.2-21.7-11.4-44.1-5.8-65.9c2-6.9,4.4-13.7,7.3-20.2c9.4-22.7,19.1-45.5,24.2-69.5
		c5.2-24,5.6-49.7-3.1-72.6c-9.8-25.6-30.5-46.9-35.1-73.9C695,699.4,687.2,702,679.5,700.7z"/>
	<path class="st0" d="M503.1,166.3c-1.6-3.4-6.2-5.7-9.3-3.5s-2.7,7-3.5,10.9c-1.5,7.6-9,12.8-16.8,14c-3.6,0.6-7.7,0.3-10.5-2
		c-1.8-1.7-3.2-3.9-3.9-6.3c-7.8-20.7-3-44.8,9.7-62.9c2.7-4,6-7.6,9.9-10.6c10.7-7.8,25-7.8,38.2-7.3c2.7,0.3,5.4,0,7.9-0.9
		c1.9-1,3.7-2.3,5.3-3.9c12.5-11,29.8-15.6,46.5-14.9c16.7,0.7,32.8,6.5,47.6,14.1c7.1,3.6,14,7.8,19.6,13.5
		c13.4,13.7,16.6,34.1,19.2,53.1c2.8,20.5,5.6,41.5,0.9,61.6c-2.7,11.4-7.8,22.5-7.2,34.2c-10.7,3.1-21.6,5.5-32.7,7.2
		c-5.2,0.8-11.1,1.3-14.9-2.4c-1.6-1.7-2.8-3.8-3.4-6c-4.1-12.1-2.7-25.9-8.9-37.1c-5.3-9.3-14.9-15.2-25.6-15.7
		c-4.1-0.1-8.7,0.9-10.8,4.3c-0.8,1.7-1.4,3.5-1.8,5.3c-2.9,8.6-14.6,12.9-22.4,8.1c-3.9-2.4-6.5-6.5-10-9.5
		c-4.4-3.8-10.1-5.8-15.1-8.9C494.6,190.4,509.6,179.8,503.1,166.3z"/>
	<path class="st0" d="M373.5,606.6c-7.1,2.3-13.5,6.4-20.4,9.2c-12.1,5.1-25.4,6.2-38.1,9.5c-12.2,3.3-24,8-35,14.1
		c-0.8,0.4-3.4,2.6-5.4,4.1c0-0.7,0-1.3,0-2c0.3-4.2,2.1-8.2,5-11.3c3-3.1,7.1-5.1,11.1-6.8c20.6-9.2,42.1-16.5,64-21.6
		c3.5-0.8,7.2-1.6,10.7-0.6C366.4,604.5,370,605.7,373.5,606.6z"/>
	<path class="st1" d="M190.3,938c13.9,15.5,26.4,32.4,42.6,45.5c-18.7-24.8-45.5-41.4-69.7-60.1c-4.9-3.8-14.7-9.2-17.7-14.7
		c-4.7-8.6,5.7-2.5,10-0.2C168.9,916,180.1,926.7,190.3,938z"/>
	<path class="st1" d="M690.7,485.3c-0.7,5.6-2.7,10.9-4.8,16.1c-5.2,12.9-10.7,25.7-18.5,37.2c-5.4,7.9-11.8,15-17.4,22.7
		c-5.8,8.2-11,16.7-15.8,25.5c-8.8,15.6-17.4,31.4-25.8,47.2c-4,7.6-8,15.3-13.1,22.1c-3.6,4.6-7.5,9.1-11.6,13.2
		c-9,9.5-18.3,18.4-26.4,28.7c-4,5.2-10.7,7.2-16.9,8.9c-2.1,0.7-4.3,1.1-6.5,1.2c-2.2-0.2-4.4-0.6-6.5-1.4
		c-7-2.1-13.8-4.7-20.4-7.8c-1.5-28.6-4.9-57.4,2.6-84.8c2.2-8.1,5.4-15.9,7.9-23.9c5-15.6,6.2-31.7,7.5-47.9
		c1.5-3.2,3.2-6.5,4.8-9.6c10.8-21.3,19.9-44.8,17.1-68.5c-0.7-4.3-1.2-8.6-1.5-12.9c0-5.3,0.9-10.6,2.6-15.6
		c7.8-24,25.8-43.4,49.1-53c3.6-1.7,7.6-2.6,11.6-2.6c5.2,0.3,10.1,3,15.2,2c17.1,7.5,30.9,20.3,41.2,35.9s10.9,36.3,22.1,51.2
		C690.4,473.8,691.3,479.7,690.7,485.3z"/>
	<polygon class="st12" points="317,415.2 316.4,414 295.3,423.7 291.8,425.4 288.3,427 318,491.5 321.6,489.9 325.1,488.3 
		346.2,478.5 345.7,477.4 324.5,487.1 324,485.9 345.1,476.2 344.6,475 323.5,484.8 322.9,483.6 344,473.8 343.5,472.7 322.4,482.4 
		321.8,481.3 343,471.5 342.4,470.3 321.3,480.1 320.7,478.9 341.9,469.2 341.3,468 320.2,477.7 319.7,476.6 340.8,466.8 
		340.2,465.6 319.1,475.4 318.6,474.2 339.7,464.5 339.2,463.3 318,473 317.5,471.9 338.6,462.1 338.1,460.9 317,470.7 316.4,469.5 
		337.5,459.8 337,458.6 315.9,468.3 315.3,467.2 336.5,457.4 335.9,456.2 314.8,466 314.2,464.8 335.4,455.1 334.8,453.9 
		313.7,463.6 313.2,462.5 334.3,452.7 333.8,451.6 312.6,461.3 312.1,460.1 333.2,450.4 332.7,449.2 311.5,458.9 311,457.8 
		332.1,448 331.6,446.9 310.5,456.6 309.9,455.4 331,445.7 330.5,444.5 309.4,454.3 308.8,453.1 330,443.3 329.4,442.2 308.3,451.9 
		307.7,450.7 328.9,441 328.3,439.8 307.2,449.6 306.7,448.4 327.8,438.6 327.3,437.5 306.1,447.2 305.6,446 326.7,436.3 
		326.2,435.1 305,444.9 304.5,443.7 325.6,434 325.1,432.8 304,442.5 303.4,441.3 324.6,431.6 324,430.4 302.9,440.2 302.3,439 
		323.5,429.3 322.9,428.1 301.8,437.8 301.3,436.7 322.4,426.9 321.8,425.7 300.7,435.5 300.2,434.3 321.3,424.6 320.8,423.4 
		299.6,433.1 299.1,432 320.2,422.2 319.7,421 298.5,430.8 298,429.6 319.1,419.9 318.6,418.7 297.5,428.4 296.9,427.3 318,417.5 
		317.5,416.3 296.4,426.1 295.8,424.9 	"/>
	<path class="st1" d="M383.3,557.2c-2.7,4.6-6.9,8.6-12.1,10c-6.5,1.7-14-1.6-16.8-7.6c-1.7-3.7-1.7-8-1.7-12.2
		c-0.1-8.1-1-16.1-2.6-24c-0.8-4-1.9-8.1-4.6-11.1c-3.5-3.9-9-5.2-14.2-5.3c-6-0.1-12.7,1.6-16.2,6.5c-2.8,4-3.3,9.5-7.1,12.6
		c-1.7,1.3-3.7,2.1-5.8,2.3c-8.8,1.1-17.2-3.9-20.3-12.2c-1.2-3.4-1.8-7.7-5-9.3c-1.7-0.8-3.7-0.7-5.5-1.2c-5.5-1.7-7-8.6-7.5-14.4
		c-0.6-6.7,1.7-20-6.7-20.4c-8.9-0.5-19.3,4.7-27.5,7.4c-5.3,2.1-11.5,4.6-16.4,1.6c-3.6-2.2-5.1-6.8-4.8-11s1.8-8.2,3.1-12.2
		c2.2-6.8,3.5-13.8,5.5-20.7c-0.9,1.9-1.8,3.9-2.5,6c-2.9,8.2-4.2,16.8-6.9,25c-1.3,4-2.9,8-3.1,12.2s1.3,8.8,4.8,11
		c4.9,3,11.1,0.5,16.4-1.6c8.3-2.8,18.6-7.9,27.5-7.4c8.3,0.5,6.1,13.7,6.7,20.4c0.5,5.7,2,12.7,7.5,14.4c1.8,0.5,3.8,0.4,5.5,1.2
		c3.2,1.6,3.9,5.8,5,9.3c3.2,8.3,11.6,13.3,20.3,12.2c2.1-0.2,4.1-1.1,5.8-2.3c3.8-3.1,4.3-8.6,7.1-12.6c3.5-4.9,10.2-6.6,16.2-6.5
		c5.2,0.1,10.8,1.4,14.2,5.3c2.7,3,3.8,7.1,4.6,11.1c1.6,7.9,2.4,16,2.6,24c0.1,4.1,0,8.4,1.7,12.2c2.8,6,10.3,9.3,16.8,7.6
		c5.2-1.4,9.4-5.4,12.1-10c2.1-3.8,3.7-7.8,4.8-11.9C383.9,556.1,383.6,556.6,383.3,557.2z"/>
	<path class="st8" d="M449.8,548.6c-10.3-9.9-19.7-20.9-29-31.9c-8.9-10.5-17.8-21-25-32.7c-4.4-7.3-8.4-15.2-15.2-20.2
		c-5.2-3.9-11.5-5.7-17.2-8.6c-4.1-2.1-7.9-4.8-12-7c-8.9-4.8-18.8-7.1-28.9-6.8c-4.2,0.1-8.9,1.1-11.1,4.7
		c-0.7,1.2-1.1,2.7-1.8,3.9c-2.3,3.9-7.9,5-9.8,9c-3.2,6.9,6.5,13.1,7.1,20.7c0.3,3.8-1.8,7.3-2.4,11c-1,6.5,2.3,12.6,5.5,18.3
		c6.9,12.1,15.3,25.3,28.9,28.3c4.8,1.1,9.9,0.7,14.6,2.2c3.8,1.4,7.3,3.5,10.3,6.2c12.8,10.1,24,21.9,33.4,35.2
		c4.4,6.2,8.3,12.6,12.7,18.7c14,19.4,32.4,35.2,53.7,46.2l15.9-50.4c2.4-7.8,4.4-18.4-2.6-24.4C468.4,563,458.3,556.8,449.8,548.6z
		"/>
	<path class="st10" d="M622.4,375.8c-5,1-10-1.7-15.2-2c-4,0-8,0.9-11.6,2.6c-23.3,9.6-41.3,29-49.1,53c-1.7,5-2.6,10.3-2.6,15.7
		c0.1,4.3,1,8.6,1.5,12.9c2.8,23.7-6.3,47.2-17,68.5c-6,11.8-12.7,24.2-11.3,37.3c0.2,1.8,0.5,3.7-0.6,5.2c-1.3,1.7-4.1,1.8-5.3,3.6
		c-1.2,1.8-0.1,4.5-1.1,6.5c-1.3,2.9-5.5,2.5-8.5,1.5c-8.3-2.8-15.9-7.1-22.5-12.8c-10.7,6.3-22.2,13.7-25.8,25.7
		c-0.8,3-1.4,6.1-1.7,9.3L446,649c-0.7,6.1-1.1,13.3,3.5,17.4c8,7.1,22.2-2.1,30.7,4.3c2.2,1.6,3.6,4.1,5.2,6.3
		c9.3,12.8,25.4,18.4,40.4,23.3c2.1,0.8,4.3,1.3,6.5,1.4c2.2-0.1,4.4-0.5,6.5-1.2c6.3-1.8,12.9-3.8,16.9-8.9
		c8.1-10.3,17.4-19.2,26.4-28.7c4.1-4.2,8-8.6,11.6-13.2c5.2-6.9,9.1-14.5,13.1-22.1c8.3-15.9,16.9-31.6,25.7-47.2
		c4.8-8.8,10.2-17.2,16-25.4c5.6-7.8,12-14.9,17.4-22.7c7.8-11.5,13.3-24.3,18.5-37.2c2.1-5.2,4.2-10.5,4.9-16.1
		c0.7-5.6-0.2-11.6-3.6-16c-11.2-14.9-11.8-35.6-22.1-51.2C653.3,396.1,639.5,383.3,622.4,375.8z"/>
	<path class="st0" d="M317.3,420.5c-0.6,0.4-1,1-1.1,1.7c0,0.6,0.5,1.2,0.8,1.7c0.8,1.7-0.5,3.6-1.9,4.7s-3.2,2-4,3.7
		c-0.1,0.2-0.2,0.5-0.2,0.7c0.1,0.3,0.3,0.6,0.6,0.9c0.9,1,2,1.7,3.2,2.1c2,0.4,3.9-0.9,5.6-2c1.8-1.2,3.8-2.1,5.8-2.8
		c0.6-0.2,1.2-0.5,1.7-0.9c0.6-0.6,1-1.5,1.1-2.4c0.4-3.2-1.3-6.4-3.3-9C323.3,415.7,319.3,418.7,317.3,420.5z"/>
	<path class="st0" d="M-15.1,735L119,803.5c1,0.5,1.4,1.7,0.9,2.7l-34.2,67c-0.5,1-1.7,1.4-2.7,0.9l-134.2-68.5
		c-1-0.5-1.4-1.7-0.9-2.7l34.2-67C-17.3,734.9-16.1,734.5-15.1,735z"/>
	
		<rect x="1.8" y="739.5" transform="matrix(0.4546 -0.8907 0.8907 0.4546 -697.9116 469.1231)" class="st10" width="64.6" height="129.9"/>
	
		<ellipse transform="matrix(0.4546 -0.8907 0.8907 0.4546 -703.5864 396.2828)" class="st13" cx="-28.2" cy="772.7" rx="1.4" ry="2.1"/>
	
		<ellipse transform="matrix(0.4546 -0.8907 0.8907 0.4546 -692.3583 542.9025)" class="st13" cx="97.1" cy="836.8" rx="2.3" ry="3.5"/>
	<g class="st14">
		<path class="st12" d="M664,212c-2.7,11.4-7.8,22.5-7.2,34.2c-10.7,3.1-21.6,5.5-32.7,7.2c-5.2,0.8-11.1,1.3-14.9-2.4
			c-1.6-1.7-2.8-3.8-3.4-6c-4.1-12.1-2.7-25.9-8.9-37.1c-5.3-9.3-14.9-15.2-25.6-15.7c-4.1-0.1-8.7,0.9-10.8,4.3
			c-0.8,1.7-1.4,3.5-1.8,5.3c-2.9,8.6-14.6,12.9-22.4,8.1c-3.9-2.4-6.5-6.5-10-9.5c-4.4-3.8-10.1-5.8-15.1-8.9
			c-4.5-2.8-6.7-5.6-7.6-8.4c-1.1,6.2-1.5,11.9,7.6,17.5c5,3.1,10.7,5,15.1,8.9c3.5,3,6.1,7.1,10,9.5c7.8,4.8,19.5,0.5,22.4-8.1
			c0.4-1.8,1-3.6,1.8-5.3c2.1-3.5,6.7-4.5,10.8-4.3c10.7,0.5,20.3,6.5,25.6,15.7c6.2,11.2,4.8,25,8.9,37.1c0.7,2.3,1.8,4.4,3.5,6.1
			c3.8,3.6,9.8,3.2,14.9,2.4c11-1.7,21.9-4.2,32.7-7.2c-0.6-11.7,4.5-22.8,7.2-34.2c2.1-9.3,2.9-18.9,2.5-28.4
			C666.3,199.2,665.4,205.7,664,212z"/>
		<path class="st12" d="M504.4,169.9c0.9-4.3,0.5-8.7-1.3-12.7c-1.6-3.4-6.2-5.7-9.3-3.5c-3.1,2.2-2.7,7-3.4,10.9
			c-1.5,7.6-9,12.8-16.8,14c-3.6,0.6-7.7,0.3-10.5-2c-1.8-1.7-3.2-3.9-3.9-6.3c-2-5.4-3.2-11-3.6-16.7c-0.7,8.7,0.6,17.5,3.6,25.8
			c0.7,2.4,2.1,4.6,3.9,6.3c2.8,2.4,6.9,2.6,10.5,2c7.7-1.2,15.3-6.5,16.8-14c0.7-3.9,0.2-8.6,3.4-10.8c3.2-2.2,7.8,0.1,9.3,3.5
			C503.7,167.5,504.1,168.6,504.4,169.9z"/>
	</g>
</g>
<g id="Gym">
	<path class="st15" d="M1535,50.7c-87.2-3-170.3-31.2-249.6-62s-157.9-65-243.1-81.3c-54.8-10.5-117.5-12-161.6,17.4
		c-42.5,28.3-56.2,77-63.6,122.3c-5.6,34.1-8.8,69.9,6.4,101.8c10.6,22.1,29.3,40.7,42.3,61.9c45.1,73.8,13.3,164.7-35.7,236.8
		c-22.9,33.8-49.5,66-67.2,102c-17.7,36-25.9,77.2-10.4,113.9c15.4,36.4,51.9,63.7,91.5,82.9c80.5,39,175.3,50.2,267.7,56.5
		c204.7,14,410.4,7.9,615.6,1.9c75.9-2.2,152.2-4.5,226.9-16.3c41.5-6.5,84.3-16.9,114.4-41.9c38.2-31.7,47.7-85.4,22.1-125.2
		c-43-66.7-161.8-83.3-191.8-154.9c-16.5-39.4,0.4-83.3,24.5-119.9c51.5-78.4,137.9-147.2,142.5-236.8
		c3.1-61.6-38.4-123.2-102.6-152.4c-67.3-30.5-160.6-26.7-210.3,23.8C1701.9,33.3,1612.1,53.4,1535,50.7z"/>
	<g class="st16">
		<polygon class="st17" points="1335.8,376 1296.3,376.9 1289.9,385.7 1289.9,416.4 1297.9,422 1335.8,422 1343.9,413.2 
			1343.9,384.1 		"/>
		<path class="st18" d="M1335,380.9c0,0-36.3,5.6-39.5,0l0.8-4l38.7-0.9V380.9z"/>
		<path class="st17" d="M1339.1,464.8l6.4,6.5v30.7l-6.4,6.4c0,0-23.4,8.1-38.7,1.6l-7.3-7.3v-30.7l6.5-7.3L1339.1,464.8z"/>
		<path class="st18" d="M1337.5,472c0,0-28.2,6.4-37.9,0v-7.3h39.5L1337.5,472z"/>
		<path class="st17" d="M1323.7,421.8v43.6c-0.2,3.6-3.3,6.4-6.9,6.2l0,0c-3.6,0.2-6.7-2.6-6.9-6.2v-43.6c0-3.7,3.5-6.6,7.7-6.2l0,0
			C1321,415.9,1323.6,418.5,1323.7,421.8z"/>
		<polygon class="st17" points="1399.1,377.3 1359.6,378.1 1353.2,387 1353.2,417.6 1361.2,423.3 1399.1,423.3 1407.2,414.4 
			1407.2,385.3 		"/>
		<path class="st18" d="M1398.3,382.1c0,0-36.3,5.6-39.5,0l0.8-4l38.7-0.8V382.1z"/>
		<path class="st17" d="M1402.4,466l6.4,6.5v30.7l-6.4,6.4c0,0-23.4,8.1-38.7,1.6l-7.3-7.3v-30.7l6.5-7.3L1402.4,466z"/>
		<path class="st18" d="M1400.8,473.3c0,0-28.2,6.4-37.9,0V466h39.5L1400.8,473.3z"/>
		<path class="st17" d="M1387,423.1v43.6c-0.2,3.6-3.3,6.4-6.9,6.2l0,0c-3.6,0.2-6.7-2.6-6.9-6.2v-43.6c0-3.7,3.5-6.6,7.7-6.2l0,0
			C1384.2,417.1,1386.9,419.8,1387,423.1z"/>
		<polygon class="st17" points="1479.7,400.6 1447.2,401.3 1441.9,408.6 1441.9,433.8 1448.5,438.5 1479.7,438.5 1486.4,431.2 
			1486.4,407.3 		"/>
		<path class="st18" d="M1479.1,404.6c0,0-29.9,4.6-32.5,0l0.7-3.3l31.9-0.7L1479.1,404.6z"/>
		<path class="st17" d="M1482.4,473.7l5.3,5.3v25.2l-5.3,5.3c0,0-19.3,6.6-31.9,1.3l-6-6v-25.2l5.3-6H1482.4z"/>
		<path class="st18" d="M1481.1,479.6c0,0-23.2,5.3-31.2,0v-6h32.5L1481.1,479.6z"/>
		<path class="st17" d="M1469.8,438.3v35.9c-0.2,3-2.7,5.2-5.6,5.1l0,0c-3,0.1-5.5-2.1-5.6-5.1v-35.9c0.2-3,2.8-5.3,5.8-5.1
			c0.2,0,0.4,0,0.5,0.1l0,0C1467.5,433.4,1469.6,435.6,1469.8,438.3z"/>
		<polygon class="st17" points="1531.8,401.6 1499.3,402.3 1494,409.6 1494,434.9 1500.6,439.5 1531.8,439.5 1538.5,432.2 
			1538.5,408.3 		"/>
		<path class="st18" d="M1531.2,405.6c0,0-29.9,4.7-32.5,0l0.7-3.3l31.9-0.7L1531.2,405.6z"/>
		<path class="st17" d="M1534.5,474.7l5.3,5.3v25.2l-5.3,5.3c0,0-19.3,6.6-31.9,1.3l-6-5.9v-25.3l5.3-6H1534.5z"/>
		<path class="st18" d="M1533.2,480.7c0,0-23.2,5.3-31.2,0v-6h32.5L1533.2,480.7z"/>
		<path class="st17" d="M1521.9,439.3v35.9c-0.2,3-2.7,5.2-5.6,5.1l0,0c-3,0.1-5.5-2.1-5.6-5.1v-35.9c0-3,3-5.4,6.3-5.1l0,0
			C1519.6,434.4,1521.8,436.6,1521.9,439.3z"/>
	</g>
	
		<linearGradient id="SVGID_1_" gradientUnits="userSpaceOnUse" x1="1423.9248" y1="182.5603" x2="1423.9248" y2="904.0952" gradientTransform="matrix(1 0 0 -1 -23.94 921.55)">
		<stop  offset="0" style="stop-color:#818181;stop-opacity:0.25"/>
		<stop  offset="0.54" style="stop-color:#818181;stop-opacity:0.12"/>
		<stop  offset="1" style="stop-color:#818181;stop-opacity:0.1"/>
	</linearGradient>
	<path class="st19" d="M1983.5,532c-2.5-4.6-7.3-7.6-12.3-9c-5.1-1.2-10.3-1.5-15.5-1c-8.3,0.6-16.6,2-24.7,4.1
		c-5,1.3-10.2,3.1-13.6,7.1c-0.1,0.1-0.2,0.3-0.3,0.4c-5.2,1.4-10.3,3.4-15.4,5.2c-5,1.7-10.2,3.1-15.4,4.2
		c6.8-3.9,13.4-7.9,19-13.4c2.6-2.6,5-5.4,7.1-8.5c3.8,1.1,7.9,1.4,11.8,0.8c8-1.4,14.5-7.1,20.5-12.7l19.3-17.8
		c3.1-2.8,6.2-5.7,8.3-9.4c2.8-5.2,3-11.3,3.1-17.2c0.1-8.1,0-16.2-0.2-24.3l6.1,4.7c-0.9-10,0.9-20,5.4-29c2.1-4.3,4.9-8.6,5-13.4
		c0.1-7.4-6.3-13.3-12.8-16.5c-6.5-3.3-13.9-5.4-19.2-10.4c-8-7.5-9.4-19.5-13.4-29.7c-2.3-5.6-5.1-11.1-8.3-16.3l-7.7-13.3
		c-3.8-7-8.1-13.8-12.9-20.3c-8-10.5-18-19.2-27.9-27.7l-51.8-44.6c-12.6-10.9-25.2-21.7-38.9-31.2c-27.6-19.3-58.8-32.5-89.8-45.6
		c-7.8-3.3-15.9-6.7-24.3-6.3c-6.4,0.4-12.4,3-17.1,7.3c-4.4-1.3-8.8-3-13-4.9l-0.3-0.2c0.1-0.7,0.2-1.4,0.3-2.1
		c0.1-0.9,0.2-1.8,0.2-2.8c2.3-0.4,4.6-1.1,6.7-2.2c1.1-0.5,2-1.2,2.8-2.1c1-1.6,1.4-3.4,1.4-5.2c0.9-12.3,1.9-24.8,0.9-37.1
		c-1-12.3-4.1-24.7-10.6-35.2c-2-3.2-4.5-6.4-8.1-7.8c-4.7-1.9-10.2-0.1-15.2-1c-8.7-1.5-14.2-10-20.5-16.3
		c-16-15.9-43.3-18.3-61.8-5.4c-7,4.9-12.6,11.6-18.8,17.4s-13.5,11.2-22,12.3c-1.6,0.1-3.1,0.5-4.5,1.2c-1.7,1.1-2.5,3.2-3.2,5.1
		c-2.4,6.7-4.6,13.5-5.4,20.5c-0.1-0.4-0.2-0.9-0.2-1.3c-0.3,2.6-0.4,5.2-0.2,7.8c0.2,3.3,1.2,6.5,2.8,9.4c1.3,2.8,3.6,5,6.5,6.2
		c2,0.7,4.1,1,6.2,1h0.9c-0.3,0.9-0.7,1.8-1,2.7c-2.6,7.8-4,16-4,24.2c0,41.3,33,74.8,73.7,74.8c4.9,0,9.8-0.5,14.6-1.5
		c1.6,0.5,3.2,1,4.7,1.6c3.1,1,6.2,2.3,9.2,3.6c1.3,0.6,6.4,3.6,12.7,7.5l0,0l-0.4,0.9c-12.4,11.6-17.6,28.9-13.6,45.4
		c4.5,17.6,19.3,32.6,17.8,50.7c-0.2,2.6-0.8,5.2-0.3,7.7c0.6,3.5,3,6.4,5.4,9c2.1,2.3,4.2,4.5,6.4,6.7c-0.2,11.5-1.2,23.1-2.3,34.6
		c-0.1,1-0.1,2-0.1,3c0.1,5,1.9,9.8,5.1,13.5c3.4,4.2,4.8,10.4,4.1,16c-0.9,8-4.9,15.2-7.5,22.8c-11.9,34.1,2.7,72.5-5.5,107.6
		c-2,8.7-5.4,17.1-5.9,26c-0.3,5.6,0.6,11.4-1.5,16.5c-1.9,4.5-5.7,7.7-9.4,10.8c-5.2,4.4-10.2,9-15.1,13.7c-7.4-4-15-7.6-22.8-10.7
		c-1.3-0.5-2.6-1-3.9-1.3c-9.2-8.6-20.9-14.2-31.8-20.5c-9.1-5.3-17.7-11.2-26.4-17.1c-8.3-5.7-16.7-11.4-23.7-18.7
		c-3.5-3.7-6.7-7.7-10.5-11.1c-3.4-2.8-6.9-5.3-10.6-7.6c-16.8-10.9-32.7-22.9-47.8-36c-11.5-10-20.9-22.8-33.2-31.8
		c-7.5-5.5-16.3-10.5-25.5-9.4c-2.9,0.3-5.8,1.2-8.4,2.6c-2.4-1-5.1-1.6-7.7-1.7c-7.5-0.2-14.4,3.8-20.8,7.7
		c-37.8,23-76.2,44.9-115.2,65.8c-7.9,4.2-15.8,8.4-23.3,13.3c-14.7,9.5-27.6,21.3-38.4,35c-2,2.5-4.5,5.4-7.6,5
		c-0.9-0.1-1.7-0.4-2.4-0.9c-4.9-2.6-7.8-7.7-10.6-12.6c-2-3.5-4.2-7.2-7.2-9.9l0,0c-0.6-1.7-1.5-3.3-2.5-4.7
		c4.2-10.3,7.8-20.9,11.2-31.6c1.7-5.6,3.4-11.2,5.7-16.7c5.5-13.4,14.3-25.6,17.4-39.8c0.7-3.4,1.2-7,1.8-10.4
		c34-6.7,59.6-37,59.6-73.4c0-41.3-33-74.8-73.7-74.8c-40.7,0-73.7,33.5-73.7,74.8c-0.1,25.6,12.9,49.4,34.4,63.3c0,0.1,0,0.3,0,0.4
		c-0.1,2.4-0.3,4.7-0.7,7.1c-1.4,7.9-4.7,15.4-8.1,22.6c-2.2,4.8-4.5,9.7-6.8,14.5c-1.1-0.2-2.2-0.6-3.2-1.1c-2-1.1-2.9-3.5-3.6-5.7
		c-3.3-9.9-7.4-19.4-12.2-28.7c-1.9-3.9-4.3-7.6-7.1-10.9c-5-5.5-11.8-8.7-18.4-12c-1.2-0.6-2.3-1.2-3.4-1.7c-1-0.7-2-1.4-3.1-2
		c-5.5-3.1-11.6-5.3-16.2-9.7c-3.4-3.3-5.8-7.5-9-11c-5.4-5.8-12.7-9-19.9-12.2c-3.7-1.6-7.7-3.3-11.7-3.1c-0.6,0-1.1,0.1-1.7,0.2
		c-1,0.2-2,0.4-2.9,0.7c-0.9-0.5-1.8-1.1-2.6-1.7c-4.4-3.4-6.1-9.2-7.5-14.6c-2.4-9-4.9-18.4-3.4-27.6c0.3-1.6,0.6-3.2,1-4.7
		c0.4-0.6,0.7-1.2,1-1.8c32.6-9.8,51.1-44.2,41.3-76.8c-2-6.6-5-12.7-9-18.3c-0.6-0.8-1.2-1.6-1.9-2.4l0.7-0.4c6.5-4,8-13.5,5-20.6
		c-3-7.1-9.4-12.1-16-16.1c-0.9-0.6-1.9-1.1-2.9-1.7l-0.8-0.4c-0.7-0.4-1.5-0.8-2.2-1.2l-0.9-0.4c-0.9-0.4-1.7-0.9-2.6-1.3l-0.4-0.2
		c-1.1-0.5-2.1-1-3.2-1.4l0,0c-1.1-0.4-2.1-0.8-3.2-1.2l-0.4-0.2c-1-0.4-2-0.7-3-1l-0.2-0.1c-7.4-2.4-15.2-3.7-23-3.9
		c-7.6,0-15.3,0.9-22.7,2.5c-7.3,1.3-14.4,3.4-21.3,6.1c-11.3,4.8-21.3,12.3-29.1,21.9c-1.6,0.1-3.3,0.4-4.9,0.8
		c-6.4,1.6-12.1,5.2-17.4,9.2c-4.4,3.2-8.3,7.1-11.6,11.5c-3.9,5.6-6.5,11.9-7.8,18.6c-4.5,20.9,1,42.5,5.1,63.6
		c4.1,21,6.4,44-3.5,62.9c-3.7,7.1-9.1,13.2-13,20.2s-6.7,15.4-4.4,23.1c2.8,9.4,11.8,15.3,16.5,23.8c5.5,9.9,4,23.2-3.2,31.9
		c-0.3,0.4-0.6,0.8-1,1.2c-0.3,0.4-0.8,0.9-1.3,1.3c7.5,2.6,15.8-0.2,22.4-4.4c5.3-3.2,9.9-7.5,13.2-12.7
		c8.4-13.9,4.7-31.8,7.6-47.8c3.9-21,19.7-39.7,17.5-61c-1.5-14.3-10.8-26.2-18.1-38.4c-4.9-8.2-8.9-16.9-12.2-25.9
		c-0.1-0.4-0.3-0.8-0.4-1.2l0,0c-2.1-6.1-3.8-12.5-2.7-18.9c0.4-2.1,1-4.1,1.8-6c0,0.2,0,0.5,0,0.7c0.1,6.2,1.5,12.2,4,17.8
		c7.4,15.4,25.1,22.4,36.4,34.9c0.5,0.5,0.9,1.1,1.4,1.6c0.1,0.1,0.2,0.3,0.4,0.4l1,1.2l0.4,0.6c0.3,0.4,0.6,0.8,0.9,1.3l0.4,0.5
		c0.4,0.6,0.8,1.2,1.1,1.8c2.9-3.2,5.8-6.5,7-10.6c0.1-0.4,0.2-0.7,0.2-1.1c0.1,0.1,0.2,0.2,0.3,0.3c0.2,1.3,0.4,2.5,0.6,3.8l0,0
		c0,1.8,0.2,3.6,0.6,5.4c0.9,11.3,0.2,23-0.6,34.4c-0.4,6.1,1.2,15.1-2.7,19.7l-0.1,0.1c-0.2,0.3-0.5,0.5-0.7,0.7l0,0
		c-0.7,0.7-1.3,1.4-2,2.1c-13,14.6-18.9,35.4-18.6,55.4c0.3,22.7,7.5,44.6,15.8,65.7c2.9,7.7,6.2,15.2,10.1,22.4
		c2,3.9,4.6,7.5,7.8,10.5c3.3,2.9,7.4,4.9,11.3,6.8c1,0.5,2,0.9,3,1.4l2.5,1.2l19.3,9.2c3.5,5.2,7,10.6,10.4,15.9
		c0.5,0.8,1,1.5,1.5,2.3c3.8,5.9,7.6,11.8,11.5,17.6l32.6,48.3c2.4,3.5,4.8,7.1,8.2,9.7c0.9,0.7,2,1.4,3,1.9
		c0.5,0.3,1.1,0.5,1.7,0.7c-0.7,1.1-1,2.4-0.9,3.6c0.4,1.3,1.3,2.3,2.4,3.1c7.4,6.1,15.6,12.5,17.9,21.9c1.6,6.7,0,13.8,1.5,20.5
		c2.7,12.1,14.7,19.4,26,24.1c25.4,10.4,53.5,14.4,80.5,9.6s52.5-18.8,70-40.2c5.4-6.6,9.9-13.8,15-20.6c3.5-4.8,7.4-9.4,11.5-13.8
		c4.3-2,8.5-4.3,12.5-6.9c8.5-5.7,15.9-12.9,23.6-19.7c5.8-5.1,11.9-9.8,17.2-15.4c4.8-5.2,9.3-10.8,13.4-16.5
		c9.4-12.5,19.2-24.8,29.3-36.8c5.4-6.4,11.1-13,18.6-16.5l0.3-0.1c0.9,5.3,5.1,9.8,8,14.4c12.2,18.9,24.9,38.4,43.7,50.4
		c10.3,6.6,21.9,10.6,33.6,14.3c29.5,9.3,59.5,16.7,89.6,24c1-1.9,2-3.6,3-5.3c0.5,0.5,0.9,1,1.3,1.6c0.1,0.2,0.2,0.4,0.4,0.6
		c-0.2,0-0.4,0.1-0.6,0.2c-1.9,0.9-3.4,2.5-4.2,4.5c-3.2,6.5-3.5,14-3.7,21.3c-0.1,7.1,0,14.2,0,21.3c-0.2,2.6,0.2,5.3,1.2,7.8
		c2.3,4.7,8.1,6.5,13.3,7.1c9,1,18.2,0.2,27.2-1.1c0.5,2.1,1.4,4.2,2.5,6c5.1,8.3,13.8,13.7,22.9,16.9s18.7,4.5,28.1,6.4
		c16.8,3.3,33.9,8.7,50.6,4.9c6.7-1.5,13-4.4,19.6-5.7c15.2-2.9,31,3,46.3,0.6c7.4-1.2,14.4-4.1,21.1-7.5c3.4-1.5,6.4-3.6,9-6.2
		c2.5-2.8,3.9-6.7,2.9-10.3c-0.6-2.1-1.9-3.8-2.8-5.7c-1.2-3.1-1.9-6.4-2-9.7c-1.2-12.5-3.4-25-6.4-37.2c-0.1-0.3-0.2-0.7-0.3-1.1
		c11.6-4.6,22-11.8,32.2-19l22.1-15.4c7.1-5,14.4-10,22.3-13.5c12.2-5.4,25.7-6.9,39.1-6.9c5.4,0,10.9,0.3,16.3,0.8
		c-0.7,0.8-1.2,1.6-1.5,2.6c-1.1,3.4,0.6,7.1,3.2,9.6c2.6,2.5,5.9,3.9,8.9,5.6c8.3,4.7,15.3,11.5,20.1,19.7c3,5.2,5.2,11.5,3.3,17.2
		c-2.4,7.2-10.8,12.1-10.3,19.6c0.3,4.4,3.9,8.1,7.9,9.8c4.1,1.6,8.6,1.6,13,1.5c7.2-0.2,14.6-0.8,21-4.1c4.3-2.2,8-5.5,11.6-8.8
		c3.3-3,6.6-6.1,8.5-10.2c1.7-3.8,2-8.2,2.1-12.4c0.4-19.8-3.1-39.9,0.9-59.3c1.2-5.9,3.1-11.7,4.1-17.6c1.6-9.4,1-19,0.4-28.5
		C1986.2,540.9,1985.8,536.1,1983.5,532z"/>
	<path class="st20" d="M1733.9,258.2c-4.6,3.1-6.3,9.2-6.9,14.8c-2.5,23.7,7.3,47.2,6.6,71c-0.5,19-7.6,37-14.6,54.7
		c-11.9,30.1-18.1,62.8-20.5,95c-2.4,32.3-5.9,65.9-23.2,93.1c-3.9,6.2-8.5,11.9-12.4,18.1c-4,6.5-7.2,13.5-10.8,20.2
		c-10.5,20-24.1,38.2-40.2,53.9c-4.7,4.6-9.7,9.1-15.8,11.7c-7.8,3.4-16.7,3.5-24.6,0.3c-8.1-3.3-14.9-10.9-15.2-19.6
		c-0.3-7.8,4.4-14.9,9-21.1c15.9-21.2,34.1-40.5,54.3-57.6c3.7-3.1,7.5-6.3,9.4-10.7c2.1-5.1,1.3-10.9,1.5-16.4
		c0.4-8.8,3.9-17.2,5.9-25.7c8.3-34.8-6.4-72.9,5.5-106.6c2.7-7.5,6.6-14.7,7.5-22.6c0.7-5.5-0.7-11.7-4.2-15.9
		c-3.2-3.7-5.1-8.5-5.1-13.4c0-1,0-2,0.1-3c1.4-15.5,2.9-31,2.1-46.5c-0.8-15.5-3.9-31.1-11-44.9c-3.7-7.1-8.5-13.8-10.8-21.5
		c-3.7-12.5-0.3-26,5.2-37.8c4.3-9.2,10-18,18-24.4c14.8-11.8,37-13.1,53.3-3.4c12,7.2,20.2,19.2,26.8,31.5
		C1729,240.4,1734,248,1733.9,258.2z"/>
	<path class="st21" d="M1694.6,164.1c-2.3,6.1-4.5,12.2-6.8,18.4c-1.5,4-3,8.1-4.5,12.1c-7.1,18.5-15,36.7-27.4,52
		c1.9-2.3-15.6-13.8-28.5-21.7c-6.3-3.9-11.5-6.8-12.7-7.4c-3-1.4-6.1-2.6-9.3-3.6c-4.9-1.7-9.9-3.1-14.8-4.9
		c-11.3-4.1-3.4-10.3,1.4-16.9c15.9-21.7,18.9-51.3,36.9-71.2c6.6,12.6,17.1,22.7,29.9,28.9c0.2,0.1,0.5,0.2,0.8,0.4
		c10.7,5,22.5,7.2,33.6,11.4c0.6,0.2,1.3,0.5,1.5,1.2C1694.8,163.2,1694.8,163.6,1694.6,164.1z"/>
	<path class="st21" d="M1663.7,601.6c-10.4,14.9-12.5,34.2-5.5,51c0.9,2.3,2.2,4.4,4,6.2c2.2,1.7,4.8,3,7.6,3.5
		c23.5,6.7,48.5,5.4,72.5,1.2c8.1-1.3,16.1-3.3,23.9-6.1c11.9-4.5,22.5-11.8,33-19.1l22.2-15.3c7.2-4.9,14.4-9.9,22.4-13.4
		c12.3-5.3,25.9-6.8,39.3-6.8c11.5,0,23,1.1,34.3,3.3c7.5,1.5,16.5,3,21.8-2.5c3-3.1,3.9-7.7,4.5-11.9c2.3-16.7,2.3-33.6-0.1-50.3
		c-0.1-1.4-0.6-2.7-1.5-3.8c-0.8-0.7-1.8-1.2-2.9-1.3c-10.5-2.4-20.9,2.5-31.1,5.9c-21.1,7-43.8,7.9-65.3,13.6
		c-22.5,6.1-43.7,17.5-67,19.9c-11.1,1.1-22.3,0.1-33.4,0.4c-10.3,0.2-20,3.8-30.1,4.2C1692.9,581,1676,584.4,1663.7,601.6z"/>
	<path class="st20" d="M1663.7,601.6c-10.4,14.9-12.5,34.2-5.5,51c0.9,2.3,2.2,4.4,4,6.2c2.2,1.7,4.8,3,7.6,3.5
		c23.5,6.7,48.5,5.4,72.5,1.2c8.1-1.3,16.1-3.3,23.9-6.1c11.9-4.5,22.5-11.8,33-19.1l22.2-15.3c7.2-4.9,14.4-9.9,22.4-13.4
		c12.3-5.3,25.9-6.8,39.3-6.8c11.5,0,23,1.1,34.3,3.3c7.5,1.5,16.5,3,21.8-2.5c3-3.1,3.9-7.7,4.5-11.9c2.3-16.7,2.3-33.6-0.1-50.3
		c-0.1-1.4-0.6-2.7-1.5-3.8c-0.8-0.7-1.8-1.2-2.9-1.3c-10.5-2.4-20.9,2.5-31.1,5.9c-21.1,7-43.8,7.9-65.3,13.6
		c-22.5,6.1-43.7,17.5-67,19.9c-11.1,1.1-22.3,0.1-33.4,0.4c-10.3,0.2-20,3.8-30.1,4.2C1692.9,581,1676,584.4,1663.7,601.6z"/>
	<path class="st22" d="M1682.8,576.6c-0.6,2.6-1.1,5.4-0.3,7.9c1,2.5,2.6,4.7,4.7,6.4c20.1,18,48.8,21.7,75.6,24.6
		c7.3,0.8,14.7,1.6,21.9,0.3c6.6-1.2,12.7-4.1,18.7-6.9c13-6.2,26.1-12.4,37.2-21.4c10.9-8.9,19.7-20.2,31-28.5
		c12.9-9.4,28.7-14.9,40.2-26c8.3-8,13.8-18.5,15.7-29.8c1.3-7.8,0.9-15.7,0-23.5c-0.9-9-2.4-18.1-6.7-26.1
		c-4.9-9.2-13.3-16.2-22-21.9c-18.6-12.1-40.4-19.6-62.6-19.4c-30.7,0.3-59.1,18.1-81.1,38.2c-23.3,21.3-42.2,46.9-55.5,75.5
		C1692,542.1,1686.4,559.2,1682.8,576.6z"/>
	<path class="st20" d="M1682.8,576.6c-0.6,2.6-1.1,5.4-0.3,7.9c1,2.5,2.6,4.7,4.7,6.4c20.1,18,48.8,21.7,75.6,24.6
		c7.3,0.8,14.7,1.6,21.9,0.3c6.6-1.2,12.7-4.1,18.7-6.9c13-6.2,26.1-12.4,37.2-21.4c10.9-8.9,19.7-20.2,31-28.5
		c12.9-9.4,28.7-14.9,40.2-26c8.3-8,13.8-18.5,15.7-29.8c1.3-7.8,0.9-15.7,0-23.5c-0.9-9-2.4-18.1-6.7-26.1
		c-4.9-9.2-13.3-16.2-22-21.9c-18.6-12.1-40.4-19.6-62.6-19.4c-30.7,0.3-59.1,18.1-81.1,38.2c-23.3,21.3-42.2,46.9-55.5,75.5
		C1692,542.1,1686.4,559.2,1682.8,576.6z"/>
	<path class="st21" d="M1733.9,258.2c-4.6,3.1-6.3,9.2-6.9,14.8c-2.5,23.7,7.3,47.2,6.6,71c-0.5,19-7.6,37-14.6,54.7
		c-11.9,30.1-18.1,62.8-20.5,95c-2.4,32.3-5.9,65.9-23.2,93.1c-3.9,6.2-8.5,11.9-12.4,18.1c-4,6.5-7.2,13.5-10.8,20.2
		c-10.5,20-24.1,38.2-40.2,53.9c-4.7,4.6-9.7,9.1-15.8,11.7c-7.8,3.4-16.7,3.5-24.6,0.3c-8.1-3.3-14.9-10.9-15.2-19.6
		c-0.3-7.8,4.4-14.9,9-21.1c15.9-21.2,34.1-40.5,54.3-57.6c3.7-3.1,7.5-6.3,9.4-10.7c2.1-5.1,1.3-10.9,1.5-16.4
		c0.4-8.8,3.9-17.2,5.9-25.7c8.3-34.8-6.4-72.9,5.5-106.6c2.7-7.5,6.6-14.7,7.5-22.6c0.7-5.5-0.7-11.7-4.2-15.9
		c-3.2-3.7-5.1-8.5-5.1-13.4c0-1,0-2,0.1-3c1.4-15.5,2.9-31,2.1-46.5c-0.8-15.5-3.9-31.1-11-44.9c-3.7-7.1-8.5-13.8-10.8-21.5
		c-3.7-12.5-0.3-26,5.2-37.8c4.3-9.2,10-18,18-24.4c14.8-11.8,37-13.1,53.3-3.4c12,7.2,20.2,19.2,26.8,31.5
		C1729,240.4,1734,248,1733.9,258.2z"/>
	<ellipse class="st21" cx="1668.7" cy="267.4" rx="44.7" ry="70.2"/>
	<path class="st23" d="M1554.7,634c2.7,3.8,3.5,8.5,2.4,13c4.2,3,9.3,4.5,14.5,4.2c5.1-0.3,10.2-1.4,14.9-3.4
		c4.1-1.5,8-3.6,11.6-6.1c6.2-4.6,10.6-11.1,14.2-17.8c2-3.7,3.7-8.6,1.2-11.9c-1-1.1-2.2-2.1-3.5-2.7c-9.1-5.2-18.6-9.7-28.3-13.5
		c-2.7-1.2-5.6-1.9-8.6-1.9c-3.6,0.2-6.9,2.2-9.8,4.4c-6.5,5-11.7,11.5-15.3,18.9c-1.1,2.4-4.5,8-2.8,10.4c0.8,1.1,3.5,1.5,4.7,2.2
		C1551.8,630.8,1553.4,632.3,1554.7,634z"/>
	<path class="st24" d="M1554.7,634c2.7,3.8,3.5,8.5,2.4,13c4.2,3,9.3,4.5,14.5,4.2c5.1-0.3,10.2-1.4,14.9-3.4
		c4.1-1.5,8-3.6,11.6-6.1c6.2-4.6,10.6-11.1,14.2-17.8c2-3.7,3.7-8.6,1.2-11.9c-1-1.1-2.2-2.1-3.5-2.7c-9.1-5.2-18.6-9.7-28.3-13.5
		c-2.7-1.2-5.6-1.9-8.6-1.9c-3.6,0.2-6.9,2.2-9.8,4.4c-6.5,5-11.7,11.5-15.3,18.9c-1.1,2.4-4.5,8-2.8,10.4c0.8,1.1,3.5,1.5,4.7,2.2
		C1551.8,630.8,1553.4,632.3,1554.7,634z"/>
	<path class="st22" d="M1603.6,606.6c20,3.7,38.4,13.4,58,18.6c7.9,2.1,16.1,3.5,23.7,6.6c7.6,3.1,14.8,8.4,18,15.9
		c1.4,3.6,2.3,7.4,2.7,11.2c0.9,5.4,1.5,11.5-1.7,16c-3.4,4.7-9.9,5.8-15.6,6.5c-20.8,2.5-41.5,4.9-62.4,6.7
		c-4.2,0.3-8.4,0.8-12.6,1.5c-3.4,0.7-6.8,1.7-10.2,2.5c-4.4,1-8.9,1.7-13.3,2.4c-11.4,1.6-23,3.3-34.4,2c-5.2-0.6-11.1-2.3-13.4-7
		c-1-2.4-1.4-5.1-1.2-7.7c-0.1-7-0.1-14,0-21c0.1-7.2,0.5-14.7,3.7-21.1c0.8-2,2.3-3.5,4.3-4.4c1.2-0.3,2.4-0.5,3.7-0.3
		c6.1,0.2,12.5,0.5,18,3.2c4.4,2.2,7.9,5.8,12.3,7.7c8.4,3.7,18.6,1.1,27.1,4.6c2-6.1,1.5-12.3,0.1-18.6c-1.5-6.3-3.5-12.4-4.2-18.8
		c0-1.4-0.3-2.8-0.8-4.1C1604.8,607.7,1605,606.4,1603.6,606.6z"/>
	<path class="st20" d="M1603.6,606.6c20,3.7,38.4,13.4,58,18.6c7.9,2.1,16.1,3.5,23.7,6.6c7.6,3.1,14.8,8.4,18,15.9
		c1.4,3.6,2.3,7.4,2.7,11.2c0.9,5.4,1.5,11.5-1.7,16c-3.4,4.7-9.9,5.8-15.6,6.5c-20.8,2.5-41.5,4.9-62.4,6.7
		c-4.2,0.3-8.4,0.8-12.6,1.5c-3.4,0.7-6.8,1.7-10.2,2.5c-4.4,1-8.9,1.7-13.3,2.4c-11.4,1.6-23,3.3-34.4,2c-5.2-0.6-11.1-2.3-13.4-7
		c-1-2.4-1.4-5.1-1.2-7.7c-0.1-7-0.1-14,0-21c0.1-7.2,0.5-14.7,3.7-21.1c0.8-2,2.3-3.5,4.3-4.4c1.2-0.3,2.4-0.5,3.7-0.3
		c6.1,0.2,12.5,0.5,18,3.2c4.4,2.2,7.9,5.8,12.3,7.7c8.4,3.7,18.6,1.1,27.1,4.6c2-6.1,1.5-12.3,0.1-18.6c-1.5-6.3-3.5-12.4-4.2-18.8
		c0-1.4-0.3-2.8-0.8-4.1C1604.8,607.7,1605,606.4,1603.6,606.6z"/>
	<path class="st23" d="M935.9,405.2c-4-1.3-7.9,2.3-10.2,5.9c-9.4,14.7-8.6,34.4-1.1,50.2c1.8,4,4.2,7.7,7.3,10.8
		c4.1,4,9.3,6.6,14.2,9.4c13.5,8,25.1,18.9,34,31.9c5.8,8.5,10.3,17.9,16.9,25.8c16.1,19.5,42.7,28.3,58.3,48.2
		c3.7,4.7,6.9,10.2,11.9,13.6c9.2,6.3,21.8,4,28.2-5.2c2.1-3.1,3.4-6.7,3.5-10.5c6.1-8.9,11.1-18.8,15.8-28.5
		c7-14.9,12.9-30.2,17.7-45.9c1.8-5.6,3.5-11.1,5.7-16.5c5.5-13.3,14.4-25.4,17.5-39.5c1.3-5.6,1.6-11.5,3.4-17
		c1.6-4.9,4.4-9.4,8.1-13c12.3-11.9,18.9-29.3,28.7-43.4c4-5.7,8.1-11.4,10.7-17.8c2.6-6.4,3.6-13.8,1.2-20.3
		c-2.4-6.5-8.8-11.7-15.8-11.4c-3.1,0.3-6.1,1.2-8.8,2.7c-9.5,4.5-18.3,10.6-25.9,17.9c-3.3,3.2-6.5,6.6-9.4,10.2
		c-14.4,17.2-25.7,38.2-26.7,60.6c-0.3,7.7,0.3,16.2-4.6,22.2c-13.5,16.5-17.8,39.1-29.3,57.1c-5.3,8.3-11.4,16.8-20.5,20.6
		c-1.3,0.6-2.8,0.9-4.3,0.9c-3.6-0.4-5.7-4.2-7.3-7.6c-6-13-12.9-25.5-20.8-37.5c-3.1-4.7-6.5-9.6-11.5-12.3
		c-3.4-1.9-7.3-2.7-10.5-4.9c-4.4-3.1-6.7-8.3-9-13.1c-7.5-15.8-16.9-30.5-28.1-43.8c-5.1-6.1-11.9-12.4-19.8-11.5
		C947.7,394.3,943,402.3,935.9,405.2z"/>
	<path class="st24" d="M935.9,405.2c-4-1.3-7.9,2.3-10.2,5.9c-9.4,14.7-8.6,34.4-1.1,50.2c1.8,4,4.2,7.7,7.3,10.8
		c4.1,4,9.3,6.6,14.2,9.4c13.5,8,25.1,18.9,34,31.9c5.8,8.5,10.3,17.9,16.9,25.8c16.1,19.5,42.7,28.3,58.3,48.2
		c3.7,4.7,6.9,10.2,11.9,13.6c9.2,6.3,21.8,4,28.2-5.2c2.1-3.1,3.4-6.7,3.5-10.5c6.1-8.9,11.1-18.8,15.8-28.5
		c7-14.9,12.9-30.2,17.7-45.9c1.8-5.6,3.5-11.1,5.7-16.5c5.5-13.3,14.4-25.4,17.5-39.5c1.3-5.6,1.6-11.5,3.4-17
		c1.6-4.9,4.4-9.4,8.1-13c12.3-11.9,18.9-29.3,28.7-43.4c4-5.7,8.1-11.4,10.7-17.8c2.6-6.4,3.6-13.8,1.2-20.3
		c-2.4-6.5-8.8-11.7-15.8-11.4c-3.1,0.3-6.1,1.2-8.8,2.7c-9.5,4.5-18.3,10.6-25.9,17.9c-3.3,3.2-6.5,6.6-9.4,10.2
		c-14.4,17.2-25.7,38.2-26.7,60.6c-0.3,7.7,0.3,16.2-4.6,22.2c-13.5,16.5-17.8,39.1-29.3,57.1c-5.3,8.3-11.4,16.8-20.5,20.6
		c-1.3,0.6-2.8,0.9-4.3,0.9c-3.6-0.4-5.7-4.2-7.3-7.6c-6-13-12.9-25.5-20.8-37.5c-3.1-4.7-6.5-9.6-11.5-12.3
		c-3.4-1.9-7.3-2.7-10.5-4.9c-4.4-3.1-6.7-8.3-9-13.1c-7.5-15.8-16.9-30.5-28.1-43.8c-5.1-6.1-11.9-12.4-19.8-11.5
		C947.7,394.3,943,402.3,935.9,405.2z"/>
	<ellipse class="st23" cx="935.1" cy="320.7" rx="31.1" ry="28.1"/>
	<circle class="st23" cx="964.3" cy="314.9" r="11.2"/>
	<ellipse class="st23" cx="939.2" cy="309.2" rx="42.9" ry="11.5"/>
	<path class="st23" d="M900.9,306.8c1,3.3,1.9,6.7,2.5,10.1c-3.6-3.7-6.7-7.8-9.3-12.2c-0.7-0.8-1.2-1.6-1.6-2.6
		c-3.8-8.9-6.4-17.9-6.4-27.7c0-33.5,27.2-60.7,60.7-60.7c33.5,0,60.7,27.2,60.7,60.7c0,27.4-18.3,51.3-44.7,58.5
		c1.9-6,4.4-11.8,4.7-18c0.2-2.1-0.1-4.2-0.9-6.1c-1-2.1-2.6-3.8-4.5-5.1c-6.8-5.2-15.5-7.4-24-7.3c-8.5,0.4-16.9,2.4-24.6,5.9
		c-2.4,1.1-5.4,2.5-8.3,3.4C903.8,306.2,902.4,306.6,900.9,306.8z"/>
	<path class="st23" d="M1054.8,439.5c-3.9,6.2-12.2,8.1-19.5,7.6c-13.6-1-26-8.3-36.5-17c-10.5-8.7-19.7-18.9-30.5-27.3
		c-20-15.7-42.5-22-68-22.3c5-4.1,3.1-13.9,3.5-20.3c0.9-13,1.7-26.3,0-39.1c-0.2-1.4-0.4-2.7-0.6-4.1c0.4,0.4,0.8,0.8,1.3,1.3
		c15.4,14.8,37.4,20.4,58,14.8c-0.7,2.1-1.2,4.2-1.5,6.3c-1.5,9.1,1,18.4,3.4,27.3c1.4,5.4,3.2,11.1,7.6,14.4c2.9,2.2,6.5,3,9.9,4.2
		c6.8,2.3,13,5.9,18.4,10.6c3.7,3.3,7.1,7.1,11.1,9.9c3.8,2.4,7.8,4.5,12,6.2c10.2,4.7,19.9,10.6,28.8,17.5c1.7,1.1,3,2.6,3.7,4.4
		C1056.3,435.8,1055.9,437.8,1054.8,439.5z"/>
	<path class="st23" d="M1124.6,554c-0.8,5.4-5.8,9.6-9.2,13.8c-9.5,11.4-19.1,22.9-29.7,33.4c-11.3,11.2-23.8,21.2-36.2,31.1
		l-16.1,12.9c-2,1.8-4.3,3.2-6.9,4.1c-3,0.7-6.1,0.4-8.8-1.1c-1.1-0.5-2.1-1.1-3.1-1.9c-3.3-2.6-5.8-6.1-8.2-9.6
		c-10.9-15.9-21.8-31.9-32.8-47.8c-3.9-5.7-7.7-11.5-11.5-17.4c-0.5-0.8-1-1.5-1.5-2.3c-3.5-5.3-6.9-10.6-10.5-15.8l-19.4-9.1
		l-2.6-1.2l-3-1.4c-4-1.9-8.1-3.8-11.4-6.7c-3.2-3-5.8-6.5-7.9-10.4c-3.9-7.2-7.3-14.6-10.2-22.3c-8.3-20.9-15.5-42.6-15.9-65.1
		c-0.3-19.8,5.6-40.3,18.7-54.8c1.8-2,3.7-3.9,5.8-5.6c2.5-2.1,5.1-3.4,8.4-2.9c3.2,0.5,6.3,0.9,9.4,1.5c8.6,1.5,17.1,3.3,25.6,5.4
		c7.6,1.9,15.5,4.2,23.2,2.6c1.2-0.2,2.5-0.6,3.7-0.9c1-0.3,2-0.5,3-0.7c0.6-0.1,1.1-0.2,1.7-0.2c4.1-0.2,8,1.4,11.8,3
		c7.2,3.1,14.6,6.4,20.1,12c3.2,3.4,5.6,7.6,9.1,10.9c4.6,4.3,10.7,6.5,16.3,9.6c1.1,0.6,2.1,1.3,3.1,2c2.2,1.6,4.2,3.5,5.9,5.6l0,0
		c7.2,8.4,11.4,19.8,19.3,28.2c6.3,6.7,11.8,14.2,16.4,22.2c0.7,1.3,1.5,2.7,2.2,4.1c1.2,2.3,2.3,4.6,3.3,6.9
		c0.3,0.6,0.5,1.2,0.8,1.8c1.5,3.5,2.8,7.2,3.9,10.8c2.7,8.9,4.5,18.5,10.4,25.7c4.2,5,9.9,8.3,14.8,12.6c3.1,2.6,5.6,6,7.2,9.8
		C1124.6,549.2,1124.9,551.6,1124.6,554z"/>
	<path class="st20" d="M1091.7,483c-1.4,1.7-2.7,3.4-4.2,5.1c-0.2,0.3-0.5,0.6-0.8,0.9c-12.4,14.5-26.7,27.4-42.4,38.4
		c-9.7,6.8-20,12.8-30.2,18.8l-18.9,11.1c-7.9,4.6-15.9,9.3-24.7,12c-2.8,0.8-5.8,1.5-8.6,2.3c-0.5-0.8-1-1.5-1.5-2.3
		c-3.5-5.3-6.9-10.6-10.5-15.8l-19.4-9.1c10.7-6.8,20.3-15.3,28.2-25.3c11.8-14.6,20.9-31.2,29.8-47.7c1.6-2.7,2.8-5.5,3.7-8.5
		c1.2-4.9,0.2-10.1-1.3-15c-5.3-17.4-16.5-32.5-31.7-42.7c-10.6-7.1-22.7-11.4-34.8-15.6c-8.4-2.9-17.6-5.7-26.1-4.5
		c1.8-2,3.7-3.9,5.8-5.6c2.5-2.1,5.1-3.4,8.4-2.9c3.2,0.5,6.3,0.9,9.4,1.5c6.3,1.9,12.5,4.3,18.7,6.6c4.1,1.5,8,3.3,11.8,5.4
		c3.8,2.3,7.4,4.9,10.9,7.6c10.2,7.8,21,14.9,32.3,21.2c13,7.2,26.6,13,40.3,18.9c1.4,0.7,3,1.1,4.7,1.2c1.7,0,3.1-1.1,3.5-2.8
		c0.1-0.9-0.1-1.7-0.6-2.5c-2.4-4.8-7.7-7.3-12.6-9.6c-20.2-9.8-37.9-23.8-55.4-37.7c-0.4-0.3-0.8-0.7-1.1-1.2l3-0.7
		c19.6,14.1,40.3,26.6,62,37.3c1.1,0.6,2.3,1.1,3.4,1.7c0.8,0.4,1.6,0.8,2.5,1.2l0,0c5.8,2.9,11.6,5.9,16,10.6
		c2.8,3.3,5.2,6.9,7.1,10.8c4.8,9.1,9,18.6,12.3,28.3c0.1,0.2,0.1,0.4,0.2,0.6c0.4,1.5,1.2,2.9,2.2,4.1c0.4,0.4,0.8,0.7,1.2,1
		C1086.8,481.5,1089.9,481.3,1091.7,483z"/>
	<path class="st17" d="M977.7,381.9c19.6,14.1,40.3,26.6,62,37.3l3.4,1.7c6.6,3.2,13.5,6.4,18.5,11.8c2.8,3.3,5.2,6.9,7.1,10.8
		c4.8,9.1,9,18.6,12.3,28.3c0.8,2.2,1.6,4.5,3.6,5.6c2,1.1,5.2,1,7,2.7c-1.6,2-3.2,4-4.9,5.9c-12.4,14.6-26.7,27.5-42.4,38.4
		c-9.7,6.8-20,12.8-30.2,18.8l-18.9,11.1c-7.9,4.6-15.9,9.3-24.7,12c-3.3,1-6.8,1.8-10.1,2.7c-3.5-5.3-6.9-10.6-10.5-15.8l-22-10.3
		c11.8-6.7,22.1-16.2,30.7-26.8c11.8-14.6,20.9-31.2,29.8-47.7c1.6-2.7,2.8-5.5,3.7-8.5c1.2-4.9,0.2-10.2-1.3-15
		c-5.3-17.4-16.5-32.4-31.6-42.6c-10.6-7.1-22.7-11.4-34.8-15.6c-8.4-2.9-17.6-5.7-26.1-4.5c1.8-2,3.7-3.9,5.8-5.6
		c2.5-2.1,5.1-3.4,8.4-2.9c3.2,0.5,6.3,0.9,9.4,1.5c6.3,1.9,12.5,4.3,18.7,6.7c4.1,1.5,8,3.3,11.8,5.4c3.8,2.3,7.4,4.9,10.9,7.6
		c10.3,7.8,21.1,14.8,32.3,21.1c13,7.2,26.6,13.1,40.3,18.9c1.4,0.7,3,1.1,4.7,1.2c1.7,0,3.1-1.1,3.5-2.8c0.1-0.9-0.1-1.7-0.6-2.5
		c-2.4-4.8-7.7-7.3-12.6-9.6c-20.2-9.8-37.9-23.8-55.4-37.8c-0.4-0.3-0.8-0.7-1.1-1.2L977.7,381.9z"/>
	<circle class="st17" cx="1143.2" cy="371.9" r="74.1"/>
	<path class="st22" d="M1216.9,667c13.9-4.4,28-8.8,40.2-16.8c8.6-5.6,15.9-12.8,23.7-19.5c5.8-5,11.9-9.7,17.3-15.3
		c4.8-5.2,9.3-10.6,13.5-16.3c9.5-12.4,19.3-24.6,29.4-36.5c5.4-6.4,11.2-12.9,18.7-16.4c13.5-6.3,29.2-2.1,43.4,2.3
		c21.3,6.5,42.4,13.4,62.3,23.3c11.3,5.6,22.3,11.9,33.7,17.3c20.9,9.9,43.1,16.6,65.1,23.4c1.6,0.7,3.5,0.8,5.2,0.4
		c1.2-0.6,2.3-1.5,3.1-2.6c2.9-3.6,5.2-7.5,6.8-11.8c0.7-1,0.4-2.3-0.6-3.1c-9.4-9.2-21.7-14.9-33.2-21.4
		c-9.1-5.2-17.8-11.1-26.6-16.9c-8.4-5.6-16.8-11.3-23.8-18.5c-3.5-3.6-6.7-7.7-10.6-11c-3.4-2.8-7-5.3-10.7-7.5
		c-16.8-10.8-32.9-22.7-48.1-35.6c-11.6-9.9-21-22.6-33.4-31.5c-7.6-5.4-16.4-10.4-25.6-9.4c-11.3,1.2-19.6,10.6-27.4,18.8
		c-26.4,27.4-59.7,47-89.2,71.1c-24,19.7-46.5,43-75.8,53.4c1.3,4.3,1.8,8.7,3.1,13c1.6,6,3.7,11.8,6.2,17.5c2.4,5,5.2,9.9,8.2,14.6
		l11.7,19.2c2.4,3.9,4.8,7.9,8.2,10.9C1213.5,663.9,1216.9,664.5,1216.9,667z"/>
	<path class="st20" d="M1216.9,667c13.9-4.4,28-8.8,40.2-16.8c8.6-5.6,15.9-12.8,23.7-19.5c5.8-5,11.9-9.7,17.3-15.3
		c4.8-5.2,9.3-10.6,13.5-16.3c9.5-12.4,19.3-24.6,29.4-36.5c5.4-6.4,11.2-12.9,18.7-16.4c13.5-6.3,29.2-2.1,43.4,2.3
		c21.3,6.5,42.4,13.4,62.3,23.3c11.3,5.6,22.3,11.9,33.7,17.3c20.9,9.9,43.1,16.6,65.1,23.4c1.6,0.7,3.5,0.8,5.2,0.4
		c1.2-0.6,2.3-1.5,3.1-2.6c2.9-3.6,5.2-7.5,6.8-11.8c0.7-1,0.4-2.3-0.6-3.1c-9.4-9.2-21.7-14.9-33.2-21.4
		c-9.1-5.2-17.8-11.1-26.6-16.9c-8.4-5.6-16.8-11.3-23.8-18.5c-3.5-3.6-6.7-7.7-10.6-11c-3.4-2.8-7-5.3-10.7-7.5
		c-16.8-10.8-32.9-22.7-48.1-35.6c-11.6-9.9-21-22.6-33.4-31.5c-7.6-5.4-16.4-10.4-25.6-9.4c-11.3,1.2-19.6,10.6-27.4,18.8
		c-26.4,27.4-59.7,47-89.2,71.1c-24,19.7-46.5,43-75.8,53.4c1.3,4.3,1.8,8.7,3.1,13c1.6,6,3.7,11.8,6.2,17.5c2.4,5,5.2,9.9,8.2,14.6
		l11.7,19.2c2.4,3.9,4.8,7.9,8.2,10.9C1213.5,663.9,1216.9,664.5,1216.9,667z"/>
	<path class="st23" d="M1540.3,644.5c2.7,3.8,3.5,8.5,2.4,13c4.2,3,9.3,4.5,14.5,4.3c5.2-0.3,10.2-1.4,15-3.4
		c4.1-1.5,8-3.6,11.6-6.1c6.2-4.6,10.6-11.1,14.2-17.8c2-3.7,3.7-8.6,1.1-11.9c-1-1.1-2.2-2.1-3.5-2.7c-9.1-5.2-18.5-9.7-28.3-13.5
		c-2.7-1.2-5.6-1.9-8.6-1.9c-3.6,0.2-6.9,2.2-9.8,4.4c-6.5,5-11.7,11.5-15.2,18.9c-1.1,2.4-4.5,8-2.8,10.4c0.8,1.1,3.5,1.5,4.7,2.2
		C1537.4,641.3,1539,642.8,1540.3,644.5z"/>
	<path class="st22" d="M1594.4,616.5c20,3.7,38.4,13.4,58,18.6c7.9,2.1,16.1,3.5,23.7,6.6s14.8,8.4,18,15.9
		c1.4,3.6,2.3,7.4,2.7,11.2c0.9,5.4,1.5,11.5-1.7,16c-3.4,4.7-9.9,5.8-15.6,6.5c-20.8,2.5-41.5,4.9-62.4,6.7
		c-4.2,0.3-8.4,0.8-12.6,1.5c-3.4,0.7-6.8,1.7-10.2,2.5c-4.4,1-8.9,1.7-13.3,2.4c-11.4,1.6-23,3.3-34.4,2c-5.2-0.6-11.1-2.3-13.4-7
		c-1-2.4-1.4-5.1-1.2-7.7c0-7-0.1-14,0-21c0.1-7.2,0.5-14.7,3.7-21.1c0.8-2,2.3-3.5,4.3-4.4c1.2-0.3,2.4-0.5,3.7-0.3
		c6.1,0.2,12.5,0.5,18,3.2c4.4,2.2,7.5-4.3,11.9-2.4c8.4,3.7,2.7-7.6,11.2-4.1c2-6.1,10.4-2.5,9-8.8c-1.5-6.3,3.8-3.5,3.2-10
		c0-1.4-0.3-2.8-0.8-4.1C1595.5,617.6,1595.8,616.3,1594.4,616.5z"/>
	<path class="st20" d="M995.7,238.6c-4.6,2.7-10.3,2.2-15.6,2.1c-4.7-0.1-9.3,0.1-14,0.7c-1.7,0.1-3.3,0.5-4.8,1.3
		c-2,1.3-3.5,3.1-4.5,5.2c-1.9,3.6-3.2,7.6-3.8,11.6c-0.7,4.5-0.6,9.5-3.4,13.1c-3.9,4.9-9.9,4.1-15.4,5.1
		c-4.8,0.9-9.3,2.7-13.5,5.2c-8.3,5-14,13.4-15.6,22.9c-0.2,1.1-0.3,2.1-0.3,3.2c-0.1,3,0.2,6.2-0.2,9.1c-0.1,0.7-0.2,1.5-0.4,2.2
		c-0.1,0.2-0.1,0.4-0.2,0.6c-0.2-1.4-0.4-2.7-0.6-4.1c-3.6-3.7-6.7-7.8-9.3-12.2c-0.7-0.8-1.2-1.6-1.6-2.6
		c-3.8-8.9-6.4-17.9-6.4-27.7c0-33.5,27.2-60.7,60.7-60.7C966,213.7,984.2,223,995.7,238.6L995.7,238.6z"/>
	<path class="st22" d="M999.6,215.4c-3-7-9.4-12-16-15.9c-13-7.7-27.9-12.6-43.1-12.8c-7.7,0-15.3,0.8-22.8,2.4
		c-7.3,1.3-14.4,3.3-21.3,6.1c-11.4,4.7-21.4,12.2-29.3,21.6c-1.7,0.1-3.3,0.4-4.9,0.8c-6.4,1.6-12.2,5.1-17.5,9.1
		c-4.4,3.2-8.3,7-11.6,11.4c-3.9,5.5-6.5,11.8-7.9,18.5c-4.5,20.7,1,42.1,5.1,63c4.1,20.8,6.4,43.6-3.5,62.3
		c-3.8,7.1-9.1,13.1-13.1,20c-4,6.9-6.7,15.2-4.4,22.9c2.7,9.3,11.9,15.2,16.6,23.6c6,11.3,3.7,25.1-5.5,33.9
		c7.5,2.6,15.9-0.2,22.6-4.4c5.4-3.1,9.9-7.4,13.3-12.6c8.5-13.7,4.7-31.5,7.7-47.4c3.9-20.8,19.8-39.3,17.6-60.4
		c-1.5-14.2-10.8-25.9-18.2-38.1c-4.9-8.1-9-16.7-12.3-25.5c-2.4-6.3-4.3-13.2-3.1-19.8c0.4-2,1-4,1.9-5.9c0,0.2,0,0.4,0,0.7
		c0.1,6.1,1.5,12.1,4,17.7c8.8,18,32.2,24.6,42.1,41.9c2.9-3.2,5.9-6.5,7.1-10.6c1-3.7,0.5-7.6,0.7-11.4
		c0.4-10.6,6.9-20.6,15.9-26.1c4.2-2.5,8.7-4.2,13.5-5.1c5.5-1,11.5-0.2,15.4-5.1c2.8-3.5,2.8-8.6,3.4-13.1c0.6-4.1,1.9-8,3.8-11.6
		c0.9-2.1,2.5-3.9,4.5-5.2c1.5-0.7,3.1-1.2,4.8-1.3c4.6-0.6,9.3-0.8,14-0.7c5.4,0.1,11.2,0.6,15.8-2.2
		C1001.1,231.9,1002.6,222.4,999.6,215.4z"/>
	<path class="st20" d="M1659.6,150.2c0,0.2,0,0.3,0,0.5c-2.1,18.4-19.9,17.6-24,46.6c-1.6,11.4-18.9,13.5-30.3,16.5
		c-4.9-1.7-9.9-3.1-14.8-4.9c-11.3-4.1-3.4-10.3,1.4-16.9c15.9-21.7,18.9-51.3,36.9-71.2c6.6,12.6,17.1,22.7,29.9,28.9
		C1659.1,149.9,1659.4,150,1659.6,150.2z"/>
	<path class="st21" d="M1660,139.6c0,2.8-0.2,5.6-0.5,8.4c-4.6,40.7-41.3,69.9-82,65.3c-40.7-4.6-69.9-41.3-65.3-82
		c4.6-40.7,41.3-69.9,82-65.3C1631.7,70.2,1660,101.9,1660,139.6z"/>
	<path class="st17" d="M1689.9,147.9c8.5-0.4,16.7,2.9,24.5,6.2c31.1,13,62.5,26.1,90.3,45.2c13.7,9.4,26.4,20.2,39.1,30.9
		l52.1,44.2c10,8.5,20.1,17.1,28.1,27.5c4.7,6.4,9,13.1,12.9,20.1l7.7,13.2c3.2,5.2,5.9,10.5,8.3,16.1c4,10.2,5.4,22,13.5,29.5
		c5.4,5,12.8,7,19.3,10.3c6.6,3.3,13,9.1,12.9,16.4c0,4.7-2.9,9-5,13.2c-4.5,8.9-6.3,18.8-5.4,28.7l-85.2-65.1
		c-3.4-2.6-6.9-5.3-11.1-6.1c-5.4-1.2-10.9,0.9-16.1,2.7c-41.2,14.5-84.9,20.3-128.4,16.9c-19.2-1.5-38.8-5-55.6-14.4
		c-9.3-5.2-17.6-12.1-25.8-18.9c-10.2-8.6-20.5-17.1-29.5-26.9c-2.4-2.6-4.8-5.5-5.4-9c-0.4-2.5,0.1-5.1,0.3-7.7
		c1.5-17.9-13.4-32.8-17.9-50.2c-4.1-16.7,1.5-34.3,14.4-45.7c10.1,8.9,9.8,24.5,8.6,37.9c-1.6,18.1,3.5,27,1.9,45.1
		c6.4-0.2,5.3,3.9,8-1.9c2.7-5.8,3.3-12.4,3.8-18.8c1.9-23.2,4.2-46.4,6.9-69.5c1.3-11.6,2.9-23.1,4.4-34.7c0.9-7,0.8-13.6,4.5-19.8
		C1670.9,154.8,1679.7,148.4,1689.9,147.9z"/>
	<path class="st21" d="M1701,168.9c5.4-1.7,11.2-0.1,16.7,1.5c9.6,2.9,19.2,5.9,28.7,9c7.8,2.6,15.6,5.4,22.2,10.2
		c6.8,5.1,11.8,12.1,16.8,19c3.5,5,7.1,10,9.4,15.7c3.1,7.4,3.9,15.5,4.7,23.5c0.5,3.4,0.5,6.9-0.1,10.4c-1.1,3.7-3.1,7.1-5.7,10
		c-4.1,4.8-8.8,9-14,12.6c-13.9,9.4-30.7,13.3-47.1,16.7c-14.6,3.1-29.3,5.9-44.2,6.8c-5.8,0.4-12.5,0-16.1-4.6
		c-1-1.4-1.8-3-2.4-4.7c-8.7-23.1-12.5-47.7-11.1-72.3c0.1-4.5,0.8-8.9,2.1-13.3c1.2-3.5,2.7-6.8,4.5-10c4.5-8.5,9.2-17.2,16.9-22.9
		c8.1-5.9,18.5-7.8,28.5-7.4"/>
	<path class="st20" d="M1755.4,256.5c-4.6,3.1-6.3,9.2-6.9,14.8c-2.5,23.7,7.3,47.2,6.6,71c-0.5,18.9-7.6,37-14.6,54.7
		c-11.9,30.1-18.1,62.8-20.5,95c-2.4,32.3-5.9,65.9-23.2,93.1c-3.9,6.2-8.5,11.9-12.4,18.1c-4,6.5-7.2,13.5-10.8,20.2
		c-10.5,20-24.1,38.2-40.2,53.9c-4.7,4.6-9.7,9.1-15.8,11.7c-7.8,3.4-16.7,3.5-24.6,0.3c-8.1-3.3-14.9-10.9-15.2-19.6
		c-0.3-7.8,4.4-14.9,9-21.1c15.9-21.2,34.1-40.5,54.3-57.6c3.7-3.1,7.5-6.3,9.4-10.7c2.1-5.1,1.3-10.9,1.5-16.4
		c0.4-8.8,3.9-17.2,5.9-25.7c8.3-34.8-6.4-72.9,5.5-106.6c2.7-7.5,6.6-14.7,7.5-22.6c0.7-5.5-0.7-11.7-4.2-15.9
		c-3.2-3.7-5.1-8.5-5.1-13.4c0-1,0-2,0.1-3c1.4-15.5,2.9-31,2.1-46.5s-3.9-31.1-11-44.9c-3.7-7.1-8.5-13.8-10.8-21.5
		c-3.7-12.5-0.3-26,5.2-37.8c4.3-9.2,10-18,18-24.4c14.8-11.8,37-13.1,53.3-3.4c12,7.2,20.2,19.2,26.8,31.5
		C1750.5,238.7,1755.5,246.3,1755.4,256.5z"/>
	<path class="st21" d="M1758.1,256.5c-4.6,3.1-6.3,9.2-6.9,14.8c-2.5,23.7,7.3,47.2,6.6,71c-0.5,18.9-7.6,37-14.6,54.7
		c-11.9,30.1-18.1,62.8-20.5,95c-2.4,32.3-5.9,65.9-23.2,93.1c-3.9,6.2-8.5,11.9-12.4,18.1c-4,6.5-7.2,13.5-10.8,20.2
		c-10.5,20-24.1,38.2-40.2,53.9c-4.7,4.6-9.7,9.1-15.8,11.7c-7.8,3.4-16.7,3.5-24.6,0.3c-8.1-3.3-14.9-10.9-15.2-19.6
		c-0.3-7.8,4.4-14.9,9-21.1c15.9-21.2,34.1-40.5,54.3-57.6c3.7-3.1,7.6-6.3,9.4-10.7c2.1-5.1,1.3-10.9,1.5-16.4
		c0.4-8.8,3.9-17.2,5.9-25.7c8.3-34.8-6.4-72.9,5.5-106.6c2.7-7.5,6.6-14.7,7.5-22.6c0.6-5.5-0.7-11.7-4.2-15.9
		c-3.3-3.7-5.2-8.5-5.3-13.4c0-1,0-2,0.1-3c1.4-15.5,2.9-31,2.1-46.5c-0.8-15.5-3.9-31.1-11-44.9c-3.7-7.1-8.5-13.8-10.8-21.5
		c-3.7-12.5-0.3-26,5.2-37.8c4.3-9.2,10-18,18-24.4c14.8-11.8,37-13.1,53.3-3.4c12,7.2,20.2,19.2,26.8,31.5
		C1753.2,238.7,1758.2,246.3,1758.1,256.5z"/>
	<path class="st22" d="M1877.6,565l-1,0.3"/>
	<path class="st22" d="M1670.7,617.7c0-0.4,0.1-0.8,0.2-1.2"/>
	<path class="st17" d="M1923.9,536.6c3.4-3.9,8.6-5.7,13.7-7c8.1-2.1,16.4-3.5,24.8-4c5.2-0.6,10.5-0.2,15.5,1
		c5,1.4,9.8,4.4,12.4,8.9c2.3,4,2.6,8.8,2.9,13.4c0.6,9.4,1.2,18.9-0.4,28.2c-1,5.9-2.9,11.6-4.1,17.5c-3.9,19.2-0.5,39.1-0.9,58.7
		c-0.1,4.2-0.4,8.5-2.1,12.3c-1.9,4-5.3,7.1-8.6,10.1c-3.6,3.3-7.3,6.6-11.7,8.8c-6.5,3.2-13.9,3.8-21.2,4c-4.4,0.1-8.9,0.1-13-1.5
		c-4.1-1.6-7.7-5.3-8-9.7c-0.5-7.5,8-12.4,10.4-19.5c1.9-5.6-0.3-11.9-3.3-17c-4.9-8.2-11.9-14.9-20.2-19.5c-3.1-1.7-6.4-3.1-9-5.5
		c-2.6-2.4-4.3-6.1-3.2-9.4c1.3-4,6-5.9,10.2-6.3c4.2-0.4,8.7-0.1,12.5-2c3.4-1.7,5.7-4.9,7.3-8.3c3.4-7.2,3.9-15.5,1.3-23.1
		c-1-2.9-2.5-5.6-4.4-8c-1.8-2.3-5.4-4.2-6.7-6.7C1916,547.5,1920.9,540.2,1923.9,536.6z"/>
	<path class="st20" d="M1855.3,365.5c-19.5-17.2-46.7-21.9-72.2-27.2c-13.1-2.7-26.2-5.7-39.2-9c-8.6-2.2-17.1-4.5-26-5.1
		c-8.9-0.6-18,0.6-25.6,5.2c-7.6,4.5-13.3,12.7-13.3,21.5c0,3.5,0.8,7,0.6,10.5c-0.4,5.6-3.5,10.6-5.7,15.9
		c-3.3,8.3-3.8,17.5-1.4,26.2c3.8,13.8,14.7,25.9,13.7,40.2c-1.6,23.8-1.1,48.7,3.8,72.1c4.9,23.3,11,46.8,10.9,70.6
		s-7.4,49-25.2,64.9c12.1,11.3,26.8,19.4,42.9,23.4c13.7,3.4,30.1,3.1,39.9-7.1c2.3-2.4,4.1-5.5,3.7-8.8c-0.5-2-1.3-4-2.5-5.7
		c-6.7-12-5.9-26.9-2.9-40.3s8.1-26.5,9.4-40.2c0.9-10-0.1-20.1,1.8-29.9c1.5-7.5,4.6-14.6,6.5-22c5.6-22-0.3-45.2-6.1-67.1
		c4.9,11.3,14.2,20.1,23.8,27.7c14.6,11.6,32.2,21.8,50.7,19.8c16.5-1.8,30.5-13.3,40.2-26.7c0.1-15.5,5.5-30.2,4.5-45.7
		c-0.6-6.8-1.8-13.5-3.6-20.1c-1.8-7.4-3.7-14.8-7.1-21.6C1871.9,377.8,1862.8,372.1,1855.3,365.5z"/>
	<path class="st21" d="M1859.3,365.5c-19.5-17.2-46.7-21.9-72.2-27.2c-13.1-2.7-26.2-5.7-39.2-9c-8.6-2.2-17.1-4.5-26-5.1
		c-8.8-0.6-18,0.6-25.5,5.2s-13.3,12.7-13.3,21.5c0,3.5,0.8,7,0.6,10.5c-0.4,5.6-3.6,10.6-5.7,15.9c-3.3,8.3-3.8,17.5-1.4,26.2
		c3.8,13.8,14.7,25.9,13.7,40.2c-1.6,23.8-1.1,48.7,3.8,72.1c4.9,23.3,11,46.8,10.9,70.6s-7.4,48.9-25.3,64.8
		c12.1,11.3,26.8,19.4,42.9,23.4c13.7,3.4,30.1,3.1,39.9-7.1c2.3-2.4,4.1-5.5,3.7-8.8c-0.5-2-1.3-4-2.5-5.7
		c-6.7-12-5.9-26.9-2.9-40.3s8.1-26.5,9.4-40.2c0.9-10-0.1-20.1,1.8-29.9c1.5-7.5,4.6-14.6,6.5-22c5.6-22-0.3-45.2-6.1-67.1
		c4.9,11.3,14.2,20.1,23.8,27.7c14.6,11.6,32.1,21.8,50.6,19.8c16.5-1.8,30.5-13.3,40.2-26.7c0.1-15.5,5.5-30.2,4.5-45.7
		c-0.6-6.8-1.8-13.5-3.6-20.1c-1.8-7.4-3.7-14.8-7.1-21.6C1876,377.8,1866.9,372.1,1859.3,365.5z"/>
	<path class="st17" d="M1723.8,663.5c-8.7-5.3-16.1-12.3-22-20.6c-2.1-3-4-6.1-6.6-8.7c-2.6-2.5-6.2-4.4-9.8-4
		c-4.1,0.4-7.4,3.5-10,6.8c-7,8.6-11.5,19.2-19.2,27.2c-8.9,9.2-21.4,14.2-33.8,17.3c-12.4,3.2-25.3,4.8-37.5,8.8
		c-3.8,1.3-7.9,3-9.9,6.4c-2.6,4.4-1.2,10.2,1.6,14.6c5.1,8.3,13.9,13.6,23,16.8c9.1,3.2,18.8,4.4,28.3,6.3
		c16.8,3.3,34.1,8.6,50.9,4.9c6.7-1.5,13-4.4,19.7-5.6c15.4-2.9,31.2,2.9,46.6,0.6c7.5-1.1,14.5-4.1,21.3-7.5
		c3.4-1.5,6.5-3.6,9.1-6.2c2.5-2.7,4-6.6,2.9-10.2c-0.6-2-1.9-3.8-2.8-5.7c-1.4-3-1.7-6.3-2-9.6c-1.3-12.5-3.4-24.8-6.5-36.9
		c-1.1-4.2-2.6-9-6.6-10.8c-0.8-0.4-1.8-0.5-2.6-0.3c-1.4,0.5-1.9,2.2-2.3,3.7c-3.5,11.9-16,18.8-28,15.3c-4.4-1.3-8.3-3.9-11.2-7.5
		"/>
	<path class="st20" d="M1660,139.6c0,2.8-0.2,5.6-0.5,8.4c-7.5,1.1-15.2-1.4-20.6-6.8c-2.5-2.6-4.4-5.8-6.8-8.5
		c-2.5-2.7-5.9-4.9-9.4-4.6c-3,0.2-5.6,2.1-7.7,4.4c-2.7,2.9-4.7,6.4-5.8,10.2c-0.8,2.7-1.2,5.7-3.4,7.5c-2.2,1.8-4.9,1.7-7.6,1.6
		c-3.4-0.1-7-0.3-10-1.9c-5.7-3.1-7.6-10.1-9.7-16.2c-3.5-10.2-11.5-29.6-23.9-31.7c-5.9-1-13.1,2.1-17.7,5.5
		c-7,5.1-12.1,8.4-21.2,8.2l0,0c13.3-38.7,55.4-59.4,94.2-46.1c30,10.3,50.1,38.4,50.1,70.1L1660,139.6z"/>
	<path class="st22" d="M1515.7,112.9c-2.1,0-4.2-0.3-6.3-1c-5.7-2.2-8.5-8.9-9-15c-0.8-9.3,2.4-18.5,5.5-27.4c0.7-1.9,1.5-4,3.2-5.1
		c1.4-0.7,2.9-1.1,4.5-1.1c8.5-1.2,15.8-6.4,22.1-12.2s11.9-12.4,18.9-17.2c18.5-12.8,46.1-10.4,62.1,5.4
		c6.4,6.2,11.8,14.7,20.6,16.2c5.1,0.8,10.5-0.9,15.4,1c3.5,1.4,6.1,4.5,8.1,7.7c6.6,10.3,9.7,22.6,10.7,34.8
		c1,12.2,0.1,24.5-0.9,36.7c0.1,1.8-0.4,3.6-1.4,5.2c-0.8,0.9-1.7,1.6-2.8,2.1c-9.2,4.5-20.3,2.7-27.5-4.6c-2.5-2.6-4.4-5.8-6.8-8.5
		s-5.9-4.9-9.4-4.6c-3,0.2-5.7,2.1-7.7,4.4c-2.7,2.9-4.7,6.4-5.8,10.2c-0.8,2.7-1.2,5.7-3.4,7.5c-2.2,1.8-4.9,1.7-7.6,1.6
		c-3.4-0.1-6.9-0.3-10-1.9c-5.7-3-7.6-10.1-9.7-16.1c-3.5-10.2-11.5-29.6-23.9-31.7c-5.9-1-13.1,2.1-17.7,5.5
		C1529.9,109.7,1524.8,113,1515.7,112.9z"/>
	<path class="st20" d="M1124.6,554c-0.8,5.4-5.8,9.6-9.2,13.8c-9.5,11.4-19.1,22.9-29.7,33.4c-11.3,11.2-23.8,21.2-36.2,31.1
		l-16.1,12.9c-2,1.8-4.3,3.2-6.9,4.1c-3,0.7-6.1,0.4-8.8-1.1c0.2-0.5,0.5-0.9,0.8-1.3l19.3-32.4c3.8-6.4,6.3-12.1,10.6-18.1
		c6.5-8.9,13.1-17.9,21.2-25.5c10.2-9.6,23.2-16.5,35.3-23.5c1.7-5.2,9.1-6.7,14-4.2c1.8,1,3.5,2.2,4.9,3.7
		C1124.6,549.2,1124.9,551.6,1124.6,554z"/>
	<path class="st22" d="M1039.1,615.8l-19.3,32.4c-0.8,1.3-1.6,2.8-1.3,4.3c0.4,1.2,1.3,2.3,2.4,3.1c7.4,6,15.6,12.4,18,21.7
		c1.7,6.6,0,13.7,1.5,20.3c2.7,12,14.8,19.3,26.2,23.9c25.5,10.3,53.8,14.3,80.9,9.4c27.1-4.8,52.8-18.6,70.4-39.9
		c5.4-6.5,10-13.7,15.1-20.4c14.2-18.6,32.2-33.9,50-49c23-19.5,36.5-48.5,56.7-70.9c3.7-4.1,7.7-8.3,13-9.6c3-0.7,7.1,0.4,7.2,3.4
		c0.3,5.9,5,10.7,8.3,15.7c12.2,18.7,25,38,44,49.9c10.3,6.5,22.1,10.5,33.8,14.2c29.6,9.2,59.9,16.5,90.1,23.8
		c1.5-3,3.4-5.9,5.5-8.6c3.1-3.8,7.3-6.8,10.4-10.6c5.8-7,7.8-16.2,9.6-25c-18-11-36.5-22.4-54.3-33.9c-9-5.8-18-11.7-25.2-19.5
		c-4.7-5.1-8.7-11-13.4-16.2c-4.8-5-10.1-9.6-15.6-13.9l-42.5-34.1c-12.2-9.8-24.7-20.1-36.6-30.2c-6.7-5.7-14.2-11.7-23-12
		c-7.5-0.2-14.4,3.8-20.9,7.7c-38,22.8-76.6,44.5-115.8,65.2c-7.9,4.2-15.9,8.3-23.4,13.1c-14.7,9.4-27.8,21.1-38.6,34.7
		c-2,2.5-4.5,5.3-7.7,4.9c-0.9-0.1-1.7-0.4-2.5-0.9c-4.9-2.6-7.9-7.7-10.6-12.4c-2.8-4.8-5.8-9.8-10.8-12.3c-4.9-2.5-12.3-1-14,4.2
		c-12.2,7.1-25.1,14-35.3,23.6c-8,7.6-14.6,16.5-21.2,25.5C1045.4,603.7,1042.8,609.4,1039.1,615.8z"/>
	<path class="st20" d="M1007.4,418c0,0,19.5,8.6,33.4,18.4"/>
	<path class="st22" d="M1981.7,435.7c0.4,11,0.6,22.1,0.5,33.1c-0.1,5.8-0.3,11.9-3.1,17c-2,3.7-5.2,6.5-8.3,9.4l-19.5,17.6
		c-6,5.5-12.5,11.2-20.6,12.5c-9.2,1.6-18.2-2.9-27-5.9c-8.9-3-18.2-4.6-27.6-4.6c-5.4,0-10.8,0.4-16.1-0.4
		c-3.8-0.7-7.6-1.8-11.3-3.2l-17.6-6.1c0.5-4.4,4.7-7.3,8.3-10.1c12.6-10.2,18.1-26.6,22.1-42.3c3.2-12.3,5.5-24.7,6.9-37.3
		c0.6-6.2,0.9-12.6-0.4-18.7c-1.2-4.9-3-9.8-5.2-14.3l-6.2-13.9c-3.5-7.9-10.6-11.4-17.8-16c10.9,4.1,24.2,5.8,32.4,14
		c1.6,1.8,3.5,3.3,5.6,4.5c2.3,1.1,4.8,1.2,7.3,1.6c12.3,1.8,22.8,9.6,32.9,16.7c12.4,8.8,25.2,17,38.3,24.7c5.9,3.5,12,6.9,17,11.6
		c5,4.7,8.9,11,9.2,17.9"/>
	<path class="st20" d="M922.4,416.4c-15.5,3.1-23.5,21.3-22.6,37c0.9,14.1,6.7,27.4,16.3,37.6c6.5,6.8,14.5,12,20.4,19.4
		c8.6,10.8,11.6,25.1,19.3,36.6c5.6,8.3,13.5,14.9,21.3,21.2c18,14.4,36.6,28,55.8,40.8c7.8,5.2,16.3,10.5,25.7,10.3
		c8.8-0.2,17-5.4,22.7-12.1c5.8-6.7,9.4-14.9,13.2-22.9c13.5-29.4,27.1-59.1,33.5-90.8c2-10,3.4-20.2,7.9-29.3
		c3.5-7.1,8.8-13.2,13.5-19.6c11.1-15.2,18.8-32.5,22.8-50.9c2.6-12,3.4-24.8-0.8-36.3c-4.2-11.5-14.5-21.4-26.7-22.3
		c-9.7-0.7-19.2,4.3-25.7,11.5c-6.5,7.2-10.3,16.4-12.9,25.8c-3.7,13.4-5.2,27.4-4.3,41.3c0.8,11.2,3,22.6,1.1,33.7
		c-1.4,7.8-4.8,15.1-8.2,22.3c-8.7,18.6-17.6,37.4-30.8,53.2c-4.3,5.1-10.2,10.3-16.8,9.1c-9.1-1.7-11.5-13.2-16-21.3
		c-5.5-9.9-15.9-15.9-24.1-23.8c-11.6-11.2-18.6-26.3-26.9-40.2c-8.3-13.9-19-27.6-34.3-32.9c-15.3-5.3-35.6,1.5-39.5,17.2"/>
	<path class="st20" d="M934.1,427.1c-15.5,3.1-35.2,5.1-34.3,20.8c0.9,14.1,6.6,27.4,16.3,37.6c6.5,6.8,14.5,12,20.4,19.4
		c8.6,10.8,11.6,25.1,19.3,36.6c5.6,8.4,13.5,14.9,21.3,21.2c18,14.4,36.6,28,55.8,40.8c7.8,5.2,16.3,10.5,25.7,10.3
		c8.8-0.2,17-5.4,22.7-12.1c5.8-6.7,9.4-14.9,13.2-22.9c13.5-29.4,27.1-59.1,33.5-90.8c2-9.9,3.4-20.2,7.9-29.3
		c3.5-7.1,8.8-13.2,13.5-19.6c11.1-15.2,18.8-32.5,22.8-50.9c2.6-12,3.4-24.8-0.8-36.3c-4.2-11.5-14.5-21.4-26.7-22.3
		c-9.7-0.7-19.2,4.3-25.7,11.5c-6.5,7.2-10.3,16.4-12.9,25.8c-3.7,13.4-5.2,27.4-4.3,41.3c0.8,11.2,3,22.6,1.1,33.7
		c-1.4,7.8-4.8,15.2-8.2,22.4c-8.7,18.6-17.6,37.4-30.8,53.2c-4.3,5.1-10.2,10.3-16.8,9.1c-9.1-1.7-11.5-13.2-16-21.3
		c-5.5-9.9-15.9-15.9-24.1-23.8c-11.6-11.2-18.6-26.3-26.9-40.2c-8.3-13.9-19-27.6-34.3-32.9c-15.3-5.3,3.9,28.9-0.1,44.5"/>
	<path class="st23" d="M922.4,413.7c-15.5,3.1-23.5,21.3-22.6,37c0.9,14.1,6.6,27.4,16.3,37.6c6.5,6.8,14.5,12,20.4,19.4
		c8.6,10.8,11.6,25.1,19.3,36.6c5.6,8.4,13.5,14.9,21.3,21.2c18,14.4,36.6,28,55.8,40.8c7.8,5.2,16.3,10.5,25.7,10.3
		c8.8-0.2,17-5.4,22.7-12.1s9.4-14.9,13.2-22.9c13.5-29.4,27.1-59.1,33.5-90.9c2-9.9,3.4-20.2,7.9-29.3c3.5-7.1,8.8-13.2,13.5-19.6
		c11.1-15.2,18.8-32.5,22.8-50.9c2.6-12,3.4-24.8-0.8-36.3c-4.2-11.5-14.5-21.4-26.7-22.3c-9.7-0.7-19.2,4.3-25.7,11.5
		c-6.5,7.2-10.3,16.4-12.9,25.8c-3.7,13.4-5.2,27.4-4.3,41.3c0.8,11.2,3,22.6,1.1,33.7c-1.4,7.8-4.8,15.2-8.2,22.4
		c-8.7,18.6-17.6,37.4-30.8,53.2c-4.3,5.1-10.2,10.3-16.8,9.1c-9.1-1.7-11.5-13.2-16-21.3c-5.5-9.9-15.9-15.9-24.1-23.8
		c-11.6-11.2-18.6-26.3-26.9-40.2c-8.3-13.9-19-27.6-34.3-32.9c-15.3-5.3-35.6,1.5-39.5,17.2"/>
	<g class="st25">
		<path class="st12" d="M863.2,319.3c-4.9-8.1-9-16.7-12.3-25.5l-0.4-1.2c-2.5-2.7-4.6-5.7-6.2-9c-2.5-5.6-3.9-11.6-4-17.7
			c0-0.2,0-0.4,0-0.7c-0.8,1.9-1.5,3.9-1.9,5.9c-1.2,6.7,0.8,13.5,3.1,19.8c3.3,8.9,7.4,17.4,12.3,25.5
			c7.3,12.3,16.7,24.1,18.2,38.1c2.2,21-13.7,39.6-17.6,60.4c-3,15.9,0.8,33.6-7.7,47.4c-3.4,5.2-8,9.5-13.3,12.6
			c-3.4,2.1-7,3.7-10.9,4.7c-0.7,0.8-1.5,1.6-2.3,2.4c7.5,2.6,15.9-0.2,22.6-4.4c5.4-3.1,9.9-7.4,13.3-12.6
			c8.5-13.7,4.7-31.5,7.7-47.4c3.9-20.8,19.8-39.3,17.6-60.4C880,343.2,870.6,331.4,863.2,319.3z"/>
		<path class="st12" d="M999.6,215.4c-3-7-9.4-12-16-15.9c-8.4-5-17.4-8.7-26.9-10.9c6.1,2.1,12,4.9,17.5,8.2
			c6.6,3.9,13,8.9,16.1,15.9c3.1,7,1.5,16.5-5,20.5c-4.6,2.8-10.4,2.3-15.8,2.2c-4.7-0.1-9.3,0.1-14,0.7c-1.7,0.1-3.3,0.6-4.8,1.3
			c-2,1.3-3.5,3.1-4.5,5.3c-1.9,3.6-3.2,7.6-3.8,11.6c-0.7,4.5-0.6,9.5-3.4,13.1c-3.9,4.9-9.9,4.2-15.4,5.1
			c-4.8,0.9-9.3,2.7-13.5,5.2c-9,5.5-15.5,15.5-15.9,26.1c-0.1,3.8,0.4,7.7-0.6,11.4c-0.7,2.1-1.7,4.1-3.1,5.9
			c2.1,2.2,3.9,4.7,5.5,7.4c2.9-3.2,5.9-6.5,7.1-10.6c1-3.7,0.5-7.6,0.7-11.4c0.4-10.6,6.9-20.6,15.9-26.1c4.2-2.5,8.7-4.2,13.5-5.1
			c5.5-1,11.5-0.2,15.4-5.1c2.8-3.5,2.8-8.6,3.4-13.1c0.6-4.1,1.9-8,3.8-11.6c0.9-2.1,2.5-3.9,4.5-5.2c1.5-0.7,3.1-1.2,4.8-1.3
			c4.6-0.6,9.3-0.8,14-0.7c5.4,0.1,11.2,0.6,15.8-2.2C1001.1,231.9,1002.6,222.4,999.6,215.4z"/>
	</g>
	<path class="st20" d="M922.2,328.2c0,0,14,12,40.4,4.7C962.7,332.9,946.2,339.4,922.2,328.2z"/>
	<path class="st20" d="M1670.4,125.8c0,1.8-0.5,3.6-1.4,5.2c-0.8,0.9-1.7,1.6-2.8,2.1c-9.2,4.5-20.3,2.7-27.5-4.6
		c-2.5-2.6-4.4-5.9-6.8-8.5c-2.5-2.6-5.9-4.9-9.4-4.6c-3,0.2-5.6,2.1-7.7,4.4c-2.7,2.9-4.6,6.4-5.8,10.2c-0.8,2.7-1.2,5.7-3.4,7.5
		c-2.2,1.8-4.9,1.7-7.6,1.6c-3.4-0.1-7-0.3-10-1.9c-5.7-3-7.6-10.1-9.7-16.1c-3.5-10.3-11.5-29.6-23.9-31.7
		c-5.9-1-13.1,2.1-17.7,5.5c-7,5.1-12.1,8.4-21.2,8.3c-2.1,0-4.2-0.3-6.3-1c-5.2-2-8-7.7-8.8-13.3c-0.3,2.6-0.4,5.2-0.2,7.7
		c0.5,6.1,3.3,12.7,9,15c2,0.7,4.1,1,6.3,1c9,0.1,14.2-3.1,21.2-8.2c4.6-3.4,11.8-6.5,17.7-5.5c12.3,2,20.4,21.4,23.8,31.6
		c2.1,6.1,4,13.1,9.7,16.2c3,1.6,6.5,1.8,10,1.9c2.6,0.1,5.6,0.1,7.6-1.6c2-1.7,2.6-4.8,3.4-7.5c1.1-3.8,3.1-7.3,5.8-10.2
		c2.1-2.2,4.7-4.1,7.7-4.4c3.6-0.3,7.1,1.9,9.4,4.6s4.3,5.9,6.8,8.5c7.2,7.3,18.3,9.2,27.5,4.6c1.1-0.5,2-1.2,2.8-2.1
		c1-1.6,1.4-3.4,1.4-5.2c0.9-9.9,1.3-19.9,1.2-29.9C1671.4,112.1,1670.9,118.9,1670.4,125.8z"/>
	<path class="st22" d="M850.4,629.7c0,0,1.9-2.1-1.7-2.9v-3.4h2.1c0-8.6-6-15.9-14.4-17.7v-4.2h0.6V596h-13.7v5.4h0.4v4.2
		c-8.3,1.9-14.2,9.2-14.2,17.7h1.9v3.3c0,0-4.5,2.1,0,5.9c4.5,3.8,3.8,6.5,3.8,6.5s-1.9,7.1-5.6,8v65.7c0,8.1,6.5,14.6,14.6,14.6
		c0,0,0,0,0,0h11.5c8.1,0,14.6-6.5,14.6-14.6v-65.7c0,0-6.6-4.9-5.4-8C846.6,635.8,848.4,632.7,850.4,629.7z"/>
	<rect x="501" y="1404.9" class="st21" width="356" height="232.8"/>
	<rect x="501" y="1676.8" class="st8" width="356" height="232.8"/>
	<rect x="501" y="1948.6" class="st23" width="356" height="232.8"/>
	<rect x="501" y="2220.4" class="st26" width="356" height="232.8"/>
</g>
</svg>
